<?xml version="1.0" encoding="UTF-8" standalone="no"?>
<!-- Created with Inkscape (http://www.inkscape.org/) -->

<svg
   width="722.25592mm"
   height="19.107756mm"
   viewBox="0 0 722.25592 19.107756"
   version="1.1"
   id="svg770"
   inkscape:version="1.2.1 (9c6d41e410, 2022-07-14)"
   sodipodi:docname="grip-B.svg"
   xmlns:inkscape="http://www.inkscape.org/namespaces/inkscape"
   xmlns:sodipodi="http://sodipodi.sourceforge.net/DTD/sodipodi-0.dtd"
   xmlns="http://www.w3.org/2000/svg"
   xmlns:svg="http://www.w3.org/2000/svg">
  <sodipodi:namedview
     id="namedview772"
     pagecolor="#ffffff"
     bordercolor="#000000"
     borderopacity="0.25"
     inkscape:showpageshadow="2"
     inkscape:pageopacity="0.0"
     inkscape:pagecheckerboard="0"
     inkscape:deskcolor="#d1d1d1"
     inkscape:document-units="px"
     showgrid="false"
     inkscape:zoom="0.73673541"
     inkscape:cx="278.93325"
     inkscape:cy="128.26857"
     inkscape:window-width="1920"
     inkscape:window-height="1002"
     inkscape:window-x="-8"
     inkscape:window-y="-8"
     inkscape:window-maximized="1"
     inkscape:current-layer="layer1" />
  <defs
     id="defs767">
    <linearGradient
       id="linearGradient12082"
       x1="31.983999"
       x2="35.129002"
       y1="94.028999"
       y2="94.028999"
       gradientUnits="userSpaceOnUse">
      <stop
         stop-color="#763000"
         offset=".11222"
         id="stop25062" />
      <stop
         stop-color="#d05500"
         offset="1"
         id="stop25064" />
    </linearGradient>
    <linearGradient
       id="linearGradient12068"
       x1="40.583"
       x2="40.583"
       y1="85.181"
       y2="86.341003"
       gradientUnits="userSpaceOnUse">
      <stop
         stop-color="#763000"
         offset=".2525"
         id="stop25067" />
      <stop
         stop-color="#d05500"
         offset="1"
         id="stop25069" />
    </linearGradient>
    <filter
       id="filter37141"
       x="-0.0010400607"
       y="-0.047103697"
       width="1.0020801"
       height="1.0942074"
       color-interpolation-filters="sRGB">
      <feGaussianBlur
         stdDeviation="0.29395375"
         id="feGaussianBlur25080" />
    </filter>
    <clipPath
       id="clipPath41264">
      <path
         d="m 206.32,10.884 146.69,1.86e-4 v 2.6824 l -146.69,-1.69e-4 z"
         style="paint-order:stroke fill markers"
         id="path25083" />
    </clipPath>
  </defs>
  <g
     inkscape:label="Layer 1"
     inkscape:groupmode="layer"
     id="layer1"
     transform="translate(-5.0753952,-1.4597158e-4)">
    <g
       transform="matrix(-1,0,0,1,759.31539,-84.519004)"
       fill="#ca5300"
       stroke="#000000"
       stroke-linecap="round"
       stroke-linejoin="round"
       stroke-width="1.3229"
       style="display:inline;paint-order:stroke fill markers"
       id="grip-A">
      <g
         id="grip"
         style="display:inline"
         inkscape:label="grip">
        <path
           d="m 32.646,85.181 719.01,0.0011 v 15.875 l -719.01,-0.001 z"
           stroke="#000000"
           stroke-linecap="round"
           stroke-linejoin="round"
           stroke-width="1.3229"
           style="fill:#ca5300;paint-order:stroke fill markers"
           id="path25088" />
        <path
           d="m 753.48,87.003 v 15.875 l -1.8215,-1.821 V 85.182 Z"
           id="path25090"
           style="fill:#ca5300;paint-order:stroke fill markers" />
        <path
           d="m 753.48,102.88 -719.01,-10e-4 -1.8215,-1.821 719.01,10e-4 z"
           id="path25092"
           style="fill:#ca5300;paint-order:stroke fill markers" />
        <path
           d="M 34.467,102.88 V 87.005 l -1.8215,-1.8214 v 15.875 z"
           fill="url(#linearGradient12082)"
           id="path25096"
           style="fill:url(#linearGradient12082)" />
        <path
           d="m 34.467,87.002 719.01,0.0011 -1.8215,-1.8214 -719.01,-0.0011 z"
           fill="url(#linearGradient12068)"
           id="path25098"
           style="fill:url(#linearGradient12068)" />
        <path
           d="m 34.467,87.002 719.01,0.0011 v 15.875 l -719.01,-0.001 z"
           fill="#ca5300"
           stroke="#000000"
           stroke-linecap="round"
           stroke-linejoin="round"
           stroke-width="1.3229"
           style="paint-order:stroke fill markers"
           id="path25100" />
      </g>
      <path
         transform="translate(302.99,10.428)"
         d="m -251.88,76.575 c -2.1623,0.10361 -3.6398,0.25489 -3.4189,0.51263 19.804,0.15618 67.209,2.7588 63.044,5.6663 -13.31,3.1038 -35.05,1.0325 -53.947,2.2045 -6.0843,-0.43306 -14.944,-0.37214 -22.314,-0.07131 v 1.5555 c 0.41599,-0.05882 0.42059,-0.09405 7.9757,-0.48007 17.896,0.94962 75.6,-3.9321 61.679,2.4479 2.4578,-1.2998 10.731,-2.6065 24.092,-3.3486 42.962,0.13492 5.5924,-5.8045 -13.017,-5.6467 -5.8649,-1.2616 -29.639,-2.4546 -47.348,-2.8401 h -16.747 z m 148.44,0 c -1.2148,0.04734 -1.912,0.08853 -3.3708,0.14004 18.662,0.20119 42.314,0.59734 64.304,-0.13953 l -60.933,-5.16e-4 z m 168.28,5.16e-4 c -10.171,0.75902 -21.804,1.4654 -26.995,1.3472 -19.02,-0.26409 -39.138,-1.4307 -60.404,1.0222 -17.402,-0.90582 -30.426,5.542 -8.8387,5.8105 -25.987,0.71162 12.353,2.4966 22.177,1.5684 20.291,1.4165 51.929,-0.78402 61.997,1.3038 6.3955,0.98789 34.07,0.84213 1.6965,2.6675 33.768,2.0328 2.1606,0.346 -14.139,1.2723 1.7235,-0.36654 -6.0353,-2.0056 -3.7259,-0.05994 1.152,0.09468 1.9062,0.1214 2.5414,0.12971 -0.69291,0.04742 -1.5455,0.0679 -2.1611,0.12712 6.4447,0.45002 12.945,0.62055 19.426,0.68626 h 9.4056 c 12.778,-0.06411 25.352,-0.34642 36.996,0 h 8.7953 c -6.9402,-1.1441 -0.16254,-4.4634 8.0972,0 h 74.495 c 0.88686,-0.1092 1.7453,-0.12502 2.0965,0 h 52.282 c -20.083,-3.8258 -7.9016,-1.6962 4.9186,0 h 6.7443 c -3.0608,-0.53557 4.3684,-1.2105 5.6632,0 h 2.8866 c -0.0712,-0.0359 -0.10729,-0.06378 -0.18552,-0.10129 0.34537,0.03651 0.79491,0.06571 1.1565,0.10129 l 34.272,5.17e-4 c -8.1258,-1.6405 -10.313,-4.7854 -20.702,-6.5092 3.7725,-3.0824 19.086,-7.7414 29.393,-4.0116 -2.3359,-1.5855 2.2326,-3.2837 17.603,-2.6923 -1.7657,-1.2496 -0.8635,-2.0705 2.2128,-2.6619 h -45.245 c -0.98879,0.0625 -1.6047,0.11681 -2.6768,0.18087 -2.99,0.17282 -3.6872,0.05231 -3.3145,-0.18087 l -79.132,-5.17e-4 c 1.5722,0.15739 3.4644,0.40666 6.0389,0.90537 -6.9203,0.29036 -10.428,-0.51976 -10.024,-0.90537 h -11.62 c 0.12867,0.03608 0.30665,0.05229 0.42633,0.09147 -1.8318,-0.01762 -3.04,-0.05651 -4.363,-0.09147 h -29.479 c 0.86313,0.13415 1.8701,0.3117 3.0959,0.56482 -3.3404,0.19602 -5.7277,-0.2438 -6.3851,-0.56482 h -4.8674 c -0.7334,0.09946 -2.2635,0.21256 -5.1248,0.34055 -2.6391,-0.13295 -4.2109,-0.24342 -5.2829,-0.34055 h -69.751 z m 321.76,5.17e-4 c 0.0547,0.20429 0.46259,0.50497 1.4552,0.92759 1.7674,-0.34622 1.8406,-0.68179 1.3699,-0.92759 h -2.8252 z m 16.696,0 c 5.3448,0.76634 7.9031,1.4194 -5.7748,1.6826 -10.276,5.106 -25.623,-2.0346 -43.693,2.4613 13.301,-0.37761 11.858,4.0612 18.402,4.162 -6.0482,3.152 7.0435,5.6885 23.787,7.569 h 54.485 v -15.875 h -47.206 z m -124.92,0.24546 c 0.25363,0.08521 -0.7484,0.33826 -4.1915,0.86661 -8.6324,0.13302 3.4306,-1.1222 4.1915,-0.86661 z m -58.988,0.27337 c 1.4135,0.05901 3.0719,0.28655 4.5785,0.80202 -10.858,0.36132 -8.819,-0.97906 -4.5785,-0.80202 z m 23.178,0.27595 c 5.1017,0.03307 7.8992,0.21205 -6.9128,0.4377 -5.5947,-0.35792 1.8111,-0.47077 6.9128,-0.4377 z m -280.96,0.45217 c -2.1418,-0.12453 -5.0402,-0.0545 -2.2701,0.58394 5.797,-0.14033 4.4119,-0.45942 2.2701,-0.58394 z m 159.86,0.31109 c 0.54423,0.07741 0.71446,0.36058 -0.0439,0.9927 -6.5897,0.39469 -1.5888,-1.2249 0.0439,-0.9927 z m -121.34,0.51108 c 0.32798,0.05605 -0.95979,0.18017 -5.3883,0.40669 -11.12,-0.13034 4.4044,-0.57484 5.3883,-0.40669 z m 9.3803,0.41703 c 4.2111,-0.11174 8.6132,0.0038 0.57309,0.68213 -8.8045,-0.2313 -4.7842,-0.57038 -0.57309,-0.68213 z m 146.02,0.05168 c 3.9956,-0.123 7.5544,1.4385 -4.4059,2.5104 -0.54604,-1.7565 2.0086,-2.4366 4.4059,-2.5104 z m -34.959,0.12919 c 2.1755,-0.03304 4.5865,0.09374 7.1748,0.42788 -4.3248,0.4266 -19.998,4.0218 1.4485,7.5546 -27.559,0.31736 -23.852,-7.7512 -8.6232,-7.9825 z m 208.69,1.2888 c -3.3858,0.05332 -7.5777,0.48976 -2.4185,1.1493 8.3839,-0.87279 5.8042,-1.2026 2.4185,-1.1493 z m -538.76,0.03617 c -1.7379,-0.06627 -3.6122,0.20733 -0.40979,1.0196 3.7492,-0.54716 2.1477,-0.9533 0.40979,-1.0196 z m 373.83,0.12506 c 2.0414,0.2073 -1.5329,4.7198 -9.662,6.6156 -6.4576,-0.17611 -1.1716,-3.5504 -8.3685,-3.4019 -35.325,-0.76811 7.1503,-5.2834 11.666,-0.17777 3.3481,-2.335 5.436,-3.1302 6.364,-3.036 z m -391.67,0.06666 c -0.9734,0.06172 -1.3786,0.25817 -0.3116,0.67851 11.265,0.16407 3.2318,-0.86368 0.3116,-0.67851 z m -24.469,0.2682 c -0.86081,0.10467 -0.28406,0.70112 3.3316,2.1663 14.772,1.6325 -0.74915,-2.4803 -3.3316,-2.1663 z m 203.88,0.31006 c -0.80937,0.0815 -1.0083,0.46605 1.1312,1.3255 3.2621,-0.755 0.21776,-1.4613 -1.1312,-1.3255 z m 70.533,0.6873 c 1.3869,0.04257 1.8973,0.28735 -1.2707,0.86455 -5.7876,-0.44528 -1.0408,-0.9355 1.2707,-0.86455 z m 13.457,0.25425 c 1.9274,0.0119 3.5064,0.36501 1.6671,1.3663 -9.0601,-0.45782 -4.8794,-1.3862 -1.6671,-1.3663 z m -276.1,0.30541 c -0.94936,0.05437 -1.6164,0.30744 -1.3524,0.9064 9.5892,0.55624 4.2005,-1.0695 1.3524,-0.9064 z m 56.105,0.11162 c 1.7991,-0.03255 1.3364,0.28753 -6.0875,1.34 -6.1924,-0.2523 3.089,-1.2857 6.0875,-1.34 z m 43.221,0.32814 c -2.6235,-0.03552 -6.5767,0.54352 0.59583,0.90692 2.0737,-0.64296 0.97828,-0.88561 -0.59583,-0.90692 z m 9.3653,0.27078 c -25.583,2.247 6.1077,0.91684 3.4949,3.7367 10.354,-1.8234 18.878,0.47807 29.772,-0.91881 -19.641,-1.0866 -14.304,-1.2472 -33.267,-2.8179 z m 520.9,0.63097 c 2.1057,-0.08452 3.3342,0.17161 -2.6308,1.0222 -2.4576,-0.51246 0.52517,-0.93764 2.6308,-1.0222 z m -214.85,0.14934 c 1.566,0.07686 2.5076,0.44236 0.008,1.2619 -6.9624,-0.71561 -2.6182,-1.39 -0.008,-1.2619 z m 207.51,0.73174 c 2.4654,-0.02728 3.552,0.76806 -1.5503,3.2029 -10.498,-0.82766 -2.5588,-3.1574 1.5503,-3.2029 z m -531.55,0.06201 c -1.4667,0.07528 -2.3938,0.41321 -0.18604,1.156 6.574,-0.67712 2.6306,-1.2815 0.18604,-1.156 z m 180.61,0.1633 c 3.0084,-0.07254 6.5737,0.08591 6.9479,0.79685 -15.429,0.08607 -11.962,-0.67596 -6.9479,-0.79685 z m 284.8,0.48111 c -4.4974,-0.19231 -9.0193,0.43036 -0.0734,2.4448 9.0437,-1.2452 4.5708,-2.2525 0.0734,-2.4448 z m -550.4,0.27388 c -3.2808,-0.06624 -7.2163,0.18043 -1.9642,0.93844 7.8711,-0.49307 5.245,-0.87221 1.9642,-0.93844 z m 142.13,0.02222 c -0.65764,0.06327 -0.10725,0.27656 2.9678,0.74156 11.848,0.22963 -0.99485,-0.93136 -2.9678,-0.74156 z m -117.15,0.16898 c -9.9262,0.13572 -22.269,1.4495 0.75809,1.3198 -0.70806,2.5775 -5.1915,2.9915 -1.7151,4.8292 29.405,-1.2584 0.22072,-1.1511 8.0532,-4.5548 3.9456,-1.333 -1.1405,-1.6756 -7.0962,-1.5942 z m 511.25,0.17053 c -1.5777,-0.0023 -2.4912,0.62285 -0.78239,2.4965 10.94,0.54845 4.2532,-2.4915 0.78239,-2.4965 z m -550.74,0.17932 c -6.9791,-0.08095 -15.489,0.14626 -19.658,0.22686 v 1.5219 c 4.9556,-0.31848 10.428,-0.34429 14.889,1.8681 0.34872,-0.30959 2.4115,-4.567 5.2038,-1.218 12.014,-1.7661 7.6179,-2.3054 -0.43512,-2.3988 z m 176.95,0.03101 c -3.5785,-0.03791 -5.9297,0.31224 3.6825,1.1648 4.7018,-0.7009 -0.10398,-1.1269 -3.6825,-1.1648 z m -90.263,0.33796 c -0.63417,0.06076 -0.12054,0.46343 3.53,1.4449 1.7726,-0.69806 -2.4731,-1.5461 -3.53,-1.4449 z m -6.6223,0.74517 c -2.8109,-0.07648 -5.2411,0.02177 1.1426,0.52452 4.8599,-0.19683 1.6683,-0.44804 -1.1426,-0.52452 z m 387.61,0.38912 c 3.0386,0.06805 10.657,0.87489 13.74,2.2159 -15.237,-1.6132 -16.778,-2.2839 -13.74,-2.2159 z m -370.48,0.33176 c -14.648,-0.24009 -29.357,1.7102 -34.548,0.09198 -23.602,3.3005 10.591,1.5896 6.6063,3.9424 22.544,-0.63418 -7.6933,-1.3656 13.55,-1.3219 -2.8788,0.41966 52.105,0.20781 36.946,-2.6768 -1.7792,2.1848 -1.8094,0.35736 -8.2811,1.1477 -4.5143,-0.78006 -9.3899,-1.1034 -14.273,-1.1834 z m 234.15,0.06873 c 0.81398,0.04689 1.5485,0.23227 1.7865,0.65577 -1.1136,0.04707 -1.9203,0.05386 -2.5931,0.04548 1.2428,0.12167 3.0614,0.47553 5.5966,1.264 -6.7049,0.49377 -9.1488,-1.3369 -6.2828,-1.2919 -2.6467,-0.13778 -0.42385,-0.78375 1.4929,-0.67334 z m -1.4929,0.67334 c 0.21674,0.01128 0.3994,0.02433 0.68626,0.02791 -0.28287,-0.02769 -0.46728,-0.02447 -0.68626,-0.02791 z m 109.81,-0.47491 c 1.8069,-0.07243 2.8159,0.10671 -0.29611,0.87902 -7.9429,0.06144 -2.7154,-0.7583 0.29611,-0.87902 z m -262.59,0.10749 c -5.7446,0.02636 -11.336,0.09176 -16.757,0.18655 6.1097,1.7529 55.248,1.1827 55.269,3.3145 15.089,0.1163 28.223,-0.68638 42.838,-1.3922 44.551,0.33016 -9.0824,-2.9174 -25.988,-1.017 -19.516,-0.8972 -38.128,-1.171 -55.361,-1.0919 z m 380.2,0.38654 c -6.1541,-0.20738 -12.289,0.64578 0.0574,3.1812 12.27,-1.7059 6.0967,-2.9738 -0.0574,-3.1812 z m -559.41,0.22634 c -1.1213,0.01802 -1.4968,0.23834 -0.007,0.82734 13.447,0.88724 3.3707,-0.88139 0.007,-0.82734 z m 497.52,0.04186 c 1.7794,-0.10248 3.7539,0.2392 3.5796,1.5916 -8.969,-0.01612 -6.5453,-1.4208 -3.5796,-1.5916 z m -348.13,0.03462 c -2.9734,-0.0729 -8.8391,0.0707 -16.112,0.74052 17.989,0.10451 21.067,-0.61902 16.112,-0.74052 z m 207.7,0.19017 c 0.74617,-0.24271 29.495,0.72744 11.362,0.7276 -8.7475,-0.43138 -11.61,-0.6467 -11.362,-0.7276 z m 41.092,0.20412 c 3.7229,-0.17228 17.1,0.4746 0.94672,0.49868 -2.3558,-0.29291 -2.1877,-0.44125 -0.94672,-0.49868 z m 38.927,0.07028 c 16.31,-0.08109 30.21,0.64388 30.087,2.559 -17.818,-1.9672 -48.613,1.5444 -59.54,-1.6257 9.0126,-0.54593 19.666,-0.88462 29.452,-0.93328 z m -94.649,0.08837 c 2.5491,-0.05542 4.8542,0.2277 -0.73174,1.016 -4.6104,-0.56657 -1.8174,-0.96054 0.73174,-1.016 z m -142.9,0.0062 c 2.9141,0.09685 7.1793,0.31102 12.705,0.70176 -18.029,-0.22639 -21.447,-0.99231 -12.705,-0.70176 z m -125.93,0.10697 c 1.9187,0.04446 2.5997,0.25932 -1.8562,0.74311 -7.9774,-0.41783 -1.3416,-0.81722 1.8562,-0.74311 z m 54.586,0.13746 c -1.1589,0.07242 -3.638,0.36944 -8.0724,1.0521 3.1437,0.53364 11.549,-1.2694 8.0724,-1.0521 z m 165.71,0.04237 c -3.7267,0.0383 -6.2119,0.29304 2.235,0.68006 l 2.9802,-0.06098 c 3.4798,-0.47941 -1.4885,-0.65738 -5.2152,-0.61908 z m -132.12,0.07183 c -2.1092,0.06004 -2.5698,0.31338 3.1776,0.85835 8.4328,-0.5212 0.33781,-0.95841 -3.1776,-0.85835 z m -128.5,0.16588 c -0.93974,-0.07761 -2.2974,0.25714 -3.1331,1.5064 5.105,-0.10151 4.6994,-1.377 3.1331,-1.5064 z m -16.655,0.07648 c -25.992,0.64351 8.6743,0.20792 -6.1371,1.3792 2.7608,0.72154 18.208,-1.4907 6.1371,-1.3792 z m -27.66,0.37414 c -1.7819,0.01614 -4.226,0.05564 -6.518,0.09095 v 1.187 c 1.3723,0.05837 1.1771,0.05061 0,0.0015 v 0.40824 h 11.655 c -2.2015,-0.12513 -6.2779,-0.08429 -3.8866,-0.48421 6.4824,-1.0946 4.2752,-1.2536 -1.2506,-1.2035 z m 397.54,0.14418 c 1.6966,-0.08475 5.6935,0.18749 11.759,1.2754 -11.025,-0.0012 -14.587,-1.1341 -11.759,-1.2754 z m -13.923,0.06253 c 1.6213,0.06541 3.4831,0.52081 0.7214,1.1694 -3.7234,-0.91027 -2.3427,-1.2348 -0.7214,-1.1694 z m -242.77,0.02997 c -1.0151,0.04728 -0.60514,0.17265 2.8866,0.42271 16.03,-0.0037 0.15857,-0.56455 -2.8866,-0.42271 z m -15.089,0.2837 c -1.4853,0.0348 -3.2284,0.14456 -4.8131,0.37879 11.406,0.0875 9.269,-0.4832 4.8131,-0.37879 z m 64.457,0.12247 c -5.6355,-0.14139 -14.74,1.0125 3.3435,0.67644 0.02779,-0.43807 -1.465,-0.62932 -3.3435,-0.67644 z m -165.38,0.57878 c -0.65978,0.02966 -0.90069,0.16976 -0.39171,0.46612 h 5.1113 c -1.4736,-0.2669 -3.6048,-0.51624 -4.7196,-0.46612 z m 132.84,0.17725 c 0.14094,0.10509 0.22826,0.19819 0.30541,0.28887 h 3.7119 c -1.1238,-0.0933 -2.0036,-0.18268 -4.0173,-0.28887 z m -64.462,0.10594 c -1.1979,0.0054 -2.4304,0.065 -3.5238,0.18293 h 7.1257 c -0.93909,-0.10899 -2.1435,-0.18949 -3.6018,-0.18293 z m -81.909,0.01395 c -0.2893,0.01376 -0.53336,0.06818 -0.68007,0.16898 h 1.973 c -0.40071,-0.11114 -0.87206,-0.189 -1.2929,-0.16898 z m 259.23,0.14573 c -0.26877,-0.0048 -0.45338,0.01818 -0.69556,0.02377 h 1.1379 c -0.14887,-0.0053 -0.29721,-0.02117 -0.44235,-0.02377 z m -138.78,0.02119 c -0.0135,-5.41e-4 -0.0318,0.0025 -0.0455,0.0021 h 0.0615 c -0.007,-2.82e-4 -0.009,-0.0018 -0.016,-0.0021 z"
         fill="#803300"
         filter="url(#filter37141)"
         opacity="0.35"
         stroke-width="0.084667"
         id="grip-spot-shadow"
         style="display:inline;paint-order:stroke fill markers"
         inkscape:label="grip-spot-shadow" />
      <g
         id="grip-lines-shadow"
         transform="matrix(4.9014,0,0,5.9181,-976.79,22.591)"
         clip-path="url(#clipPath41264)"
         fill="none"
         opacity="0.2"
         stroke="#000000"
         stroke-linecap="round"
         stroke-linejoin="round"
         stroke-width="0.033507">
        <path
           d="M 456.92,14.31 H 14.63"
           stroke-dasharray="2.91509"
           stroke-dashoffset="1.8764"
           style="paint-order:stroke fill markers"
           id="path25106" />
        <path
           d="M 456.92,14.144 H 14.63"
           stroke-dasharray="0.770655"
           stroke-dashoffset="0.40208"
           style="paint-order:stroke fill markers"
           id="path25108" />
        <path
           d="M 456.92,14.01 H 14.63"
           stroke-dasharray="1.13923"
           stroke-dashoffset="0.067014"
           style="paint-order:stroke fill markers"
           id="path25110" />
        <path
           d="M 456.92,13.876 H 14.63"
           stroke-dasharray="0.301561, 0.10052, 0.167534, 1.13923"
           stroke-dashoffset="0.77066"
           style="paint-order:stroke fill markers"
           id="path25112" />
        <path
           d="M 456.92,13.759 H 14.63"
           stroke-dasharray="0.402081, 1.13923, 0.0670135"
           stroke-dashoffset="0.43559"
           style="paint-order:stroke fill markers"
           id="path25114" />
        <path
           d="M 456.92,13.625 H 14.63"
           stroke-dasharray="1.87638, 0.0335067, 1.13923, 2.24495, 0.770655"
           stroke-dashoffset="1.5078"
           style="paint-order:stroke fill markers"
           id="path25116" />
        <path
           d="M 456.92,13.491 H 14.63"
           stroke-dasharray="0.402081, 0.770655, 1.5078, 0.20104"
           stroke-dashoffset="0.67014"
           style="paint-order:stroke fill markers"
           id="path25118" />
        <path
           d="M 14.63,10.14 H 456.92"
           stroke-dasharray="0.80416"
           style="paint-order:stroke fill markers"
           id="path25120" />
        <path
           d="M 14.63,10.354 H 456.92"
           stroke-dasharray="0.80416"
           stroke-dashoffset="0.40208"
           style="paint-order:stroke fill markers"
           id="path25122" />
        <g
           stroke-dasharray="2.17794"
           id="g25130">
          <path
             d="M 14.63,10.567 H 456.92"
             stroke-dashoffset="0.80416"
             style="paint-order:stroke fill markers"
             id="path25124" />
          <path
             d="M 14.63,10.78 H 456.92"
             stroke-dashoffset="0.20104"
             style="paint-order:stroke fill markers"
             id="path25126" />
          <path
             d="M 14.63,10.78 H 456.92"
             stroke-dashoffset="0.20104"
             style="paint-order:stroke fill markers"
             id="path25128" />
        </g>
        <path
           d="M 14.63,10.993 H 456.92"
           stroke-dasharray="4.02081"
           stroke-dashoffset="0.20104"
           style="paint-order:stroke fill markers"
           id="path25132" />
        <path
           d="M 14.63,11.23 H 456.92"
           stroke-dasharray="0.770655"
           stroke-dashoffset="0.20104"
           style="paint-order:stroke fill markers"
           id="path25134" />
        <path
           d="M 14.63,11.396 H 456.92"
           stroke-dasharray="1.5078"
           stroke-dashoffset="0.33507"
           style="paint-order:stroke fill markers"
           id="path25136" />
        <path
           d="M 14.63,11.562 H 456.92"
           stroke-dasharray="0.335067"
           stroke-dashoffset="0.67014"
           style="paint-order:stroke fill markers"
           id="path25138" />
        <path
           d="M 14.63,11.728 H 456.92"
           stroke-dasharray="0.93819"
           stroke-dashoffset="0.40208"
           style="paint-order:stroke fill markers"
           id="path25140" />
        <path
           d="M 14.63,11.894 H 456.92"
           stroke-dasharray="6.70135"
           stroke-dashoffset="0.10052"
           style="paint-order:stroke fill markers"
           id="path25142" />
        <path
           d="M 14.63,12.059 H 456.92"
           stroke-dasharray="1.13923"
           stroke-dashoffset="0.5361"
           style="paint-order:stroke fill markers"
           id="path25144" />
        <path
           d="M 14.63,12.225 H 456.92"
           stroke-dasharray="2.27846"
           stroke-dashoffset="0.80416"
           style="paint-order:stroke fill markers"
           id="path25146" />
        <path
           d="M 14.63,12.367 H 456.92"
           stroke-dasharray="0.20104"
           stroke-dashoffset="0.067014"
           style="paint-order:stroke fill markers"
           id="path25148" />
        <path
           d="M 14.63,12.533 H 456.92"
           stroke-dasharray="2.91509"
           stroke-dashoffset="1.8764"
           style="paint-order:stroke fill markers"
           id="path25150" />
        <path
           d="M 14.63,12.699 H 456.92"
           stroke-dasharray="0.770655"
           stroke-dashoffset="0.40208"
           style="paint-order:stroke fill markers"
           id="path25152" />
        <path
           d="M 14.63,12.833 H 456.92"
           stroke-dasharray="1.13923"
           stroke-dashoffset="0.067014"
           style="paint-order:stroke fill markers"
           id="path25154" />
        <path
           d="M 14.63,12.967 H 456.92"
           stroke-dasharray="0.301561, 0.10052, 0.167534, 1.13923"
           stroke-dashoffset="0.77066"
           style="paint-order:stroke fill markers"
           id="path25156" />
        <path
           d="M 14.63,13.084 H 456.92"
           stroke-dasharray="0.402081, 1.13923, 0.0670135"
           stroke-dashoffset="0.43559"
           style="paint-order:stroke fill markers"
           id="path25158" />
        <path
           d="M 14.63,13.219 H 456.92"
           stroke-dasharray="1.87638, 0.0335067, 1.13923, 2.24495, 0.770655"
           stroke-dashoffset="1.5078"
           style="paint-order:stroke fill markers"
           id="path25160" />
        <path
           d="M 14.63,13.353 H 456.92"
           stroke-dasharray="0.402081, 0.770655, 1.5078, 0.20104"
           stroke-dashoffset="0.67014"
           style="paint-order:stroke fill markers"
           id="path25162" />
      </g>
    </g>
  </g>
</svg>
