<?xml version="1.0" encoding="UTF-8" standalone="no"?>
<!-- Created with Inkscape (http://www.inkscape.org/) -->

<svg
   width="18.179981mm"
   height="32.710461mm"
   viewBox="0 0 18.179982 32.71046"
   version="1.1"
   id="svg5335"
   inkscape:version="1.2.1 (9c6d41e410, 2022-07-14)"
   sodipodi:docname="gutter-down-right.svg"
   xmlns:inkscape="http://www.inkscape.org/namespaces/inkscape"
   xmlns:sodipodi="http://sodipodi.sourceforge.net/DTD/sodipodi-0.dtd"
   xmlns:xlink="http://www.w3.org/1999/xlink"
   xmlns="http://www.w3.org/2000/svg"
   xmlns:svg="http://www.w3.org/2000/svg">
  <sodipodi:namedview
     id="namedview5337"
     pagecolor="#ffffff"
     bordercolor="#000000"
     borderopacity="0.25"
     inkscape:showpageshadow="2"
     inkscape:pageopacity="0.0"
     inkscape:pagecheckerboard="0"
     inkscape:deskcolor="#d1d1d1"
     inkscape:document-units="px"
     showgrid="false"
     inkscape:zoom="2.0838024"
     inkscape:cx="75.10309"
     inkscape:cy="100.05747"
     inkscape:window-width="1920"
     inkscape:window-height="1002"
     inkscape:window-x="-8"
     inkscape:window-y="-8"
     inkscape:window-maximized="1"
     inkscape:current-layer="layer1" />
  <defs
     id="defs5332">
    <linearGradient
       inkscape:collect="always"
       id="linearGradient7088">
      <stop
         style="stop-color:#3a3a3a;stop-opacity:1;"
         offset="0.13"
         id="stop7084" />
      <stop
         style="stop-color:#727272;stop-opacity:1;"
         offset="0.40000001"
         id="stop7092" />
      <stop
         style="stop-color:#727272;stop-opacity:1;"
         offset="0.5"
         id="stop7094" />
      <stop
         style="stop-color:#3a3a3a;stop-opacity:1;"
         offset="0.75990677"
         id="stop7086" />
    </linearGradient>
    <inkscape:path-effect
       effect="powerclip"
       id="path-effect5939"
       is_visible="true"
       lpeversion="1"
       inverse="true"
       flatten="false"
       hide_clip="false"
       message="Use fill-rule evenodd on &lt;b&gt;fill and stroke&lt;/b&gt; dialog if no flatten result after convert clip to paths." />
    <inkscape:path-effect
       effect="powerclip"
       id="path-effect5931"
       is_visible="true"
       lpeversion="1"
       inverse="true"
       flatten="false"
       hide_clip="false"
       message="Use fill-rule evenodd on &lt;b&gt;fill and stroke&lt;/b&gt; dialog if no flatten result after convert clip to paths." />
    <inkscape:path-effect
       effect="powerclip"
       id="path-effect5921"
       is_visible="true"
       lpeversion="1"
       inverse="true"
       flatten="false"
       hide_clip="false"
       message="Use fill-rule evenodd on &lt;b&gt;fill and stroke&lt;/b&gt; dialog if no flatten result after convert clip to paths." />
    <inkscape:path-effect
       effect="powerclip"
       id="path-effect5249"
       is_visible="true"
       lpeversion="1"
       inverse="true"
       flatten="false"
       hide_clip="false"
       message="Use fill-rule evenodd on &lt;b&gt;fill and stroke&lt;/b&gt; dialog if no flatten result after convert clip to paths." />
    <inkscape:path-effect
       effect="powerclip"
       id="path-effect5233"
       is_visible="true"
       lpeversion="1"
       inverse="true"
       flatten="false"
       hide_clip="false"
       message="Use fill-rule evenodd on &lt;b&gt;fill and stroke&lt;/b&gt; dialog if no flatten result after convert clip to paths." />
    <linearGradient
       inkscape:collect="always"
       xlink:href="#linearGradient1605"
       id="linearGradient553"
       gradientUnits="userSpaceOnUse"
       x1="87.322472"
       y1="117.17256"
       x2="98.795776"
       y2="117.17256" />
    <linearGradient
       inkscape:collect="always"
       id="linearGradient1605">
      <stop
         style="stop-color:#6c6c6c;stop-opacity:1;"
         offset="0"
         id="stop1601" />
      <stop
         style="stop-color:#919191;stop-opacity:1;"
         offset="1"
         id="stop1603" />
    </linearGradient>
    <linearGradient
       inkscape:collect="always"
       xlink:href="#linearGradient1597"
       id="linearGradient555"
       gradientUnits="userSpaceOnUse"
       x1="101.2803"
       y1="113.24832"
       x2="103.83731"
       y2="113.24832" />
    <linearGradient
       inkscape:collect="always"
       id="linearGradient1597">
      <stop
         style="stop-color:#919191;stop-opacity:1;"
         offset="0"
         id="stop1593" />
      <stop
         style="stop-color:#6c6c6c;stop-opacity:1;"
         offset="1"
         id="stop1595" />
    </linearGradient>
    <linearGradient
       inkscape:collect="always"
       xlink:href="#linearGradient4450"
       id="linearGradient4452"
       x1="-424.12778"
       y1="-44.57909"
       x2="-418.15933"
       y2="-49.807358"
       gradientUnits="userSpaceOnUse" />
    <linearGradient
       inkscape:collect="always"
       id="linearGradient4450">
      <stop
         style="stop-color:#727272;stop-opacity:1"
         offset="0"
         id="stop6384" />
      <stop
         style="stop-color:#7a7a7a;stop-opacity:1;"
         offset="0.49883449"
         id="stop6596" />
      <stop
         style="stop-color:#858585;stop-opacity:1;"
         offset="0.73193473"
         id="stop6679" />
      <stop
         style="stop-color:#919191;stop-opacity:1;"
         offset="0.8321678"
         id="stop4446" />
      <stop
         style="stop-color:#919191;stop-opacity:1;"
         offset="0.91000003"
         id="stop6594" />
      <stop
         style="stop-color:#727272;stop-opacity:1;"
         offset="1"
         id="stop4448" />
    </linearGradient>
    <clipPath
       clipPathUnits="userSpaceOnUse"
       id="clipPath5927">
      <path
         id="path5929"
         style="display:none;stroke-width:1.31252;stroke-linecap:round;stroke-linejoin:round;paint-order:stroke fill markers"
         d="m 85.544186,96.552846 h 18.715754 v 8.391804 H 85.544186 Z m 0.676518,37.229724 c -0.03472,0.0611 -0.0056,0.18249 -0.01502,0.26702 0,0.95187 -0.0056,1.90405 0.0056,2.85572 0.05987,0.65564 0.534942,1.1754 1.005167,1.59318 0.818958,0.70749 1.795127,1.20492 2.785598,1.62561 -0.96579,-1.03116 -2.332734,-1.63641 -3.141556,-2.82334 -0.508627,-0.72329 -0.689788,-1.62871 -0.638285,-2.50064 5.06e-4,-0.33878 0,-0.6808 3.94e-4,-1.01755 z"
         sodipodi:nodetypes="cccccccccccccc" />
      <path
         id="lpe_path-effect5931"
         style="display:block;stroke-width:1.31252;stroke-linecap:round;stroke-linejoin:round;paint-order:stroke fill markers"
         class="powerclip"
         d="M 81.206361,92.213505 H 108.59909 V 146.80121 H 81.206361 Z m 4.337825,4.339341 v 8.391804 h 18.715754 v -8.391804 z m 0.676518,37.229724 c -0.03472,0.0611 -0.0056,0.18249 -0.01502,0.26702 0,0.95187 -0.0056,1.90405 0.0056,2.85572 0.05987,0.65564 0.534942,1.1754 1.005167,1.59318 0.818958,0.70749 1.795127,1.20492 2.785598,1.62561 -0.96579,-1.03116 -2.332734,-1.63641 -3.141556,-2.82334 -0.508627,-0.72329 -0.689788,-1.62871 -0.638285,-2.50064 5.06e-4,-0.33878 0,-0.6808 3.94e-4,-1.01755 z" />
    </clipPath>
    <clipPath
       clipPathUnits="userSpaceOnUse"
       id="clipPath5935">
      <path
         id="path5937"
         style="display:none;stroke-width:0.717614;stroke-linecap:round;stroke-linejoin:round;paint-order:stroke fill markers"
         d="m -441.62798,-60.722019 h 10.50076 v 4.471045 h -10.50076 z"
         sodipodi:nodetypes="ccccc" />
      <path
         id="lpe_path-effect5939"
         style="display:block;stroke-width:0.717614;stroke-linecap:round;stroke-linejoin:round;paint-order:stroke fill markers"
         class="powerclip"
         d="m -446.3638,-65.722524 h 28.17998 v 42.710462 h -28.17998 z m 4.73582,5.000505 v 4.471045 h 10.50076 v -4.471045 z" />
    </clipPath>
    <filter
       style="color-interpolation-filters:sRGB"
       inkscape:label="Noise Fill"
       id="filter6749"
       x="-0.020158762"
       y="-0.011012146"
       width="1.040158"
       height="1.0221132">
      <feTurbulence
         type="fractalNoise"
         baseFrequency="30 30"
         numOctaves="5"
         seed="266"
         result="turbulence"
         id="feTurbulence6733" />
      <feComposite
         in="SourceGraphic"
         in2="turbulence"
         operator="out"
         result="composite1"
         id="feComposite6735" />
      <feColorMatrix
         values="1 0 0 0 0 0 1 0 0 0 0 0 1 0 0 0 0 0 43.22 -11 "
         result="color"
         id="feColorMatrix6737" />
      <feFlood
         flood-opacity="1"
         flood-color="rgb(0,0,0)"
         result="flood"
         id="feFlood6739" />
      <feMerge
         result="merge"
         id="feMerge6745">
        <feMergeNode
           in="flood"
           id="feMergeNode6741" />
        <feMergeNode
           in="color"
           id="feMergeNode6743" />
      </feMerge>
      <feComposite
         in2="SourceGraphic"
         operator="in"
         result="composite2"
         id="feComposite6747" />
    </filter>
    <filter
       style="color-interpolation-filters:sRGB"
       inkscape:label="Noise Fill"
       id="filter6965"
       x="-0.020158763"
       y="-0.011012146"
       width="1.0399207"
       height="1.0221132">
      <feTurbulence
         type="fractalNoise"
         baseFrequency="30 30"
         numOctaves="5"
         seed="266"
         result="turbulence"
         id="feTurbulence6949" />
      <feComposite
         in="SourceGraphic"
         in2="turbulence"
         operator="out"
         result="composite1"
         id="feComposite6951" />
      <feColorMatrix
         values="1 0 0 0 0 0 1 0 0 0 0 0 1 0 0 0 0 0 43.22 -14 "
         result="color"
         id="feColorMatrix6953" />
      <feFlood
         flood-opacity="1"
         flood-color="rgb(0,0,0)"
         result="flood"
         id="feFlood6955" />
      <feMerge
         result="merge"
         id="feMerge6961">
        <feMergeNode
           in="flood"
           id="feMergeNode6957" />
        <feMergeNode
           in="color"
           id="feMergeNode6959" />
      </feMerge>
      <feComposite
         in2="SourceGraphic"
         operator="in"
         result="composite2"
         id="feComposite6963" />
    </filter>
    <filter
       inkscape:collect="always"
       style="color-interpolation-filters:sRGB"
       id="filter7041"
       x="-0.048000016"
       y="-0.047999984"
       width="1.096"
       height="1.096">
      <feGaussianBlur
         inkscape:collect="always"
         stdDeviation="0.18180646"
         id="feGaussianBlur7043" />
    </filter>
    <linearGradient
       inkscape:collect="always"
       xlink:href="#linearGradient7088"
       id="linearGradient7090"
       x1="-420.30573"
       y1="-40.169086"
       x2="-414.40344"
       y2="-46.327198"
       gradientUnits="userSpaceOnUse" />
  </defs>
  <g
     inkscape:label="Layer 1"
     inkscape:groupmode="layer"
     id="layer1"
     transform="translate(-67.402489,-63.710456)">
    <g
       id="g5274"
       transform="matrix(-1,0,0,1,-355.78133,124.43298)"
       style="filter:url(#filter6965)">
      <path
         id="path2723"
         style="display:inline;fill:none;fill-opacity:1;fill-rule:nonzero;stroke:#000000;stroke-width:0.704835;stroke-linecap:round;stroke-linejoin:round;paint-order:stroke fill markers"
         d="m -438.26133,-60.370103 c 0.91399,0 -2.32152,-0.0083 -2.73937,1.008239 -0.0124,12.729896 -0.0152,8.045315 -0.002,19.033777 -0.0851,1.756721 1.4377,2.047672 2.14811,2.978978 2.32659,2.52914 4.84745,4.884181 7.25226,7.343201 1.55834,1.904649 4.66233,2.227113 6.50503,0.532781 2.12103,-1.726155 2.04748,-5.289141 -0.0865,-6.981726 -2.18688,-2.18708 -4.37377,-4.37416 -6.56065,-6.56124 -0.0123,-10.682273 0.0246,-4.17025 -0.0184,-14.850283 -0.59496,-1.351481 -2.30362,-1.726528 -3.59215,-2.130484 -0.94968,-0.235157 -3.88463,-0.373243 -2.90639,-0.373243 z"
         sodipodi:nodetypes="scccccccccss"
         clip-path="url(#clipPath5935)"
         inkscape:path-effect="#path-effect5939"
         inkscape:original-d="m -438.26133,-60.370103 c 0.91399,0 -2.32152,-0.0083 -2.73937,1.008239 -0.0124,12.729896 -0.0152,8.045315 -0.002,19.033777 -0.0851,1.756721 1.4377,2.047672 2.14811,2.978978 2.32659,2.52914 4.84745,4.884181 7.25226,7.343201 1.55834,1.904649 4.66233,2.227113 6.50503,0.532781 2.12103,-1.726155 2.04748,-5.289141 -0.0865,-6.981726 -2.18688,-2.18708 -4.37377,-4.37416 -6.56065,-6.56124 -0.0123,-10.682273 0.0246,-4.17025 -0.0184,-14.850283 -0.59496,-1.351481 -2.30362,-1.726528 -3.59215,-2.130484 -0.94968,-0.235157 -3.88463,-0.373243 -2.90639,-0.373243 z" />
      <g
         style="fill:#6c6c6c;fill-opacity:1;stroke:none;stroke-width:1.32292;stroke-linecap:round;stroke-linejoin:round;paint-order:stroke fill markers"
         id="g470"
         inkscape:label="gutter"
         transform="matrix(0.532787,0,0,0.532787,-486.94054,-112.16412)"
         clip-path="url(#clipPath5927)"
         inkscape:path-effect="#path-effect5931">
        <path
           id="path452"
           style="display:inline;opacity:1;fill:#6c6c6c;fill-opacity:1;fill-rule:nonzero;stroke:none;stroke-width:1.32292;stroke-linecap:round;stroke-linejoin:round;paint-order:stroke fill markers"
           d="m 102.84009,138.26571 c -1.959,-1.9587 -7.075605,-3.5355 -11.473005,-3.5355 -4.3974,0 -6.3607,1.5768 -4.402,3.5355 1.9587,1.9586 7.0758,3.5355 11.4733,3.5355 4.397705,0 6.360705,-1.5769 4.401705,-3.5355 z"
           sodipodi:nodetypes="cscsc"
           inkscape:original-d="m 102.84009,138.26571 c -1.959,-1.9587 -7.075605,-3.5355 -11.473005,-3.5355 -4.3974,0 -6.3607,1.5768 -4.402,3.5355 1.9587,1.9586 7.0758,3.5355 11.4733,3.5355 4.397705,0 6.360705,-1.5769 4.401705,-3.5355 z" />
        <path
           d="m 102.84,100.74901 c -1.959,-1.958705 -7.0756,-3.535505 -11.473,-3.535505 l 8.5e-5,37.516705 c 4.3974,0 9.514005,1.577 11.473005,3.536 z"
           id="path454"
           style="display:inline;fill:#6c6c6c;fill-opacity:1;stroke:none"
           sodipodi:nodetypes="ccccc"
           inkscape:original-d="m 102.84,100.74901 c -1.959,-1.958705 -7.0756,-3.535505 -11.473,-3.535505 l 8.5e-5,37.516705 c 4.3974,0 9.514005,1.577 11.473005,3.536 z" />
        <path
           d="m 91.367,97.213505 c -3.2417,0 -5.160603,0.8569 -5.1606,2.092 l 8.5e-5,37.516705 c 0,-1.235 1.9189,-2.092 5.1606,-2.092 z"
           id="path456"
           style="display:inline;fill:#6c6c6c;fill-opacity:1;stroke:none"
           sodipodi:nodetypes="csccc"
           inkscape:original-d="m 91.367,97.213505 c -3.2417,0 -5.160603,0.8569 -5.1606,2.092 l 8.5e-5,37.516705 c 0,-1.235 1.9189,-2.092 5.1606,-2.092 z" />
        <path
           d="m 102.84,100.74901 v 0 l 9e-5,37.5172 v 0 z"
           id="path458"
           style="display:inline;fill:#6c6c6c;fill-opacity:1;stroke:none"
           sodipodi:nodetypes="ccccc"
           inkscape:original-d="m 102.84,100.74901 v 0 l 9e-5,37.5172 v 0 z" />
        <path
           d="m 86.2064,99.305505 c 0,0.4404 0.2438,0.928705 0.7586,1.443505 l 8.5e-5,37.5172 c -0.5148,-0.515 -0.758599,-1.003 -0.7586,-1.444 z"
           id="path460"
           style="display:inline;fill:#6c6c6c;fill-opacity:1;stroke:none"
           sodipodi:nodetypes="cccsc"
           inkscape:original-d="m 86.2064,99.305505 c 0,0.4404 0.2438,0.928705 0.7586,1.443505 l 8.5e-5,37.5172 c -0.5148,-0.515 -0.758599,-1.003 -0.7586,-1.444 z" />
        <path
           d="m 86.965,100.74901 c 1.9587,1.9586 7.0758,3.5355 11.4733,3.5355 l 8.5e-5,37.5167 c -4.3975,0 -9.5146,-1.577 -11.4733,-3.535 z"
           id="path462"
           style="display:inline;fill:url(#linearGradient553);fill-opacity:1;stroke:none"
           sodipodi:nodetypes="ccccc"
           inkscape:original-d="m 86.965,100.74901 c 1.9587,1.9586 7.0758,3.5355 11.4733,3.5355 l 8.5e-5,37.5167 c -4.3975,0 -9.5146,-1.577 -11.4733,-3.535 z" />
        <path
           d="m 103.599,102.19261 c 0,-0.4404 -0.244,-0.9288 -0.759,-1.4436 l 9e-5,37.5172 c 0.515,0.515 0.759,1.003 0.759,1.444 z"
           id="path464"
           style="display:inline;fill:#6c6c6c;fill-opacity:1;stroke:none"
           sodipodi:nodetypes="scccs"
           inkscape:original-d="m 103.599,102.19261 c 0,-0.4404 -0.244,-0.9288 -0.759,-1.4436 l 9e-5,37.5172 c 0.515,0.515 0.759,1.003 0.759,1.444 z" />
        <path
           d="m 98.4383,104.28451 c 3.2417,0 5.1607,-0.8569 5.1607,-2.0919 l 9e-5,37.5176 c 0,1.235 -1.919,2.091 -5.160705,2.091 z"
           id="path466"
           style="display:inline;fill:url(#linearGradient555);fill-opacity:1;stroke:none"
           sodipodi:nodetypes="ccscc"
           inkscape:original-d="m 98.4383,104.28451 c 3.2417,0 5.1607,-0.8569 5.1607,-2.0919 l 9e-5,37.5176 c 0,1.235 -1.919,2.091 -5.160705,2.091 z" />
        <path
           id="path468"
           style="display:inline;opacity:1;fill:#6c6c6c;fill-opacity:1;fill-rule:nonzero;stroke:none;stroke-width:1.32292;stroke-linecap:round;stroke-linejoin:round;paint-order:stroke fill markers"
           d="m 102.84,100.74901 c -1.959,-1.958705 -7.0756,-3.535505 -11.473,-3.535505 -4.3974,0 -6.3607,1.5768 -4.402,3.535505 1.9587,1.9586 7.0758,3.5355 11.4733,3.5355 4.3977,0 6.3607,-1.5769 4.4017,-3.5355 z"
           sodipodi:nodetypes="cscsc"
           inkscape:original-d="m 102.84,100.74901 c -1.959,-1.958705 -7.0756,-3.535505 -11.473,-3.535505 -4.3974,0 -6.3607,1.5768 -4.402,3.535505 1.9587,1.9586 7.0758,3.5355 11.4733,3.5355 4.3977,0 6.3607,-1.5769 4.4017,-3.5355 z" />
      </g>
      <g
         style="fill:#727272;fill-opacity:1;stroke:none;stroke-width:0.699256;stroke-linecap:round;stroke-linejoin:round;stroke-dasharray:none;paint-order:stroke fill markers"
         id="g2363"
         transform="translate(-11.53877,8.5965715)">
        <path
           id="path2393"
           style="fill:#727272;fill-opacity:1;stroke:none;stroke-width:0.699256;stroke-linecap:round;stroke-linejoin:round;stroke-dasharray:none;stroke-opacity:1;paint-order:stroke fill markers;filter:url(#filter7041)"
           d="m -423.607,-53.1253 c 2.51802,0 4.54516,2.027143 4.54516,4.545163 0,2.51802 -2.02714,4.545163 -4.54516,4.545163 -2.51803,0 -4.54516,-2.027143 -4.54516,-4.545163 0,-2.51802 2.02713,-4.545163 4.54516,-4.545163 z"
           transform="translate(1.0264369e-6)"
           sodipodi:nodetypes="sssss" />
        <path
           d="m -416.536,-46.0542 v 0 l -7.071,-7.0711 v 0 z"
           id="path2361"
           style="fill:#727272;fill-opacity:1;stroke:none" />
        <path
           d="m -413.319,-44.7259 c 0.822,0.8215 1.328,1.9578 1.328,3.2168 l -7.071,-7.071 c 0,-1.259 -0.506,-2.3953 -1.328,-3.2169 z"
           id="path2351"
           style="fill:#3a3a3a;fill-opacity:1;stroke:none"
           sodipodi:nodetypes="ccccc" />
        <path
           d="m -416.536,-36.9639 c -1.259,0 -2.395,-0.5068 -3.217,-1.3283 l -7.071,-7.0711 c 0.822,0.8215 1.958,1.3283 3.217,1.3283 z"
           id="path2355"
           style="fill:#3a3a3a;fill-opacity:1;stroke:none" />
        <path
           d="m -419.753,-38.2922 c -0.821,-0.8216 -1.328,-1.9579 -1.328,-3.2169 l -7.071,-7.071 c 0,1.259 0.507,2.3953 1.328,3.2168 z"
           id="path2357"
           style="fill:#727272;fill-opacity:1;stroke:none" />
        <path
           d="m -411.991,-41.5091 c 0,2.518 -2.027,4.5452 -4.545,4.5452 l -7.071,-7.0711 c 2.518,0 4.545,-2.0271 4.545,-4.5451 z"
           id="path2353"
           style="fill:url(#linearGradient7090);fill-opacity:1;stroke:none" />
        <path
           id="path2349"
           style="fill:url(#linearGradient4452);fill-opacity:1;stroke:none"
           d="m -423.60681,-53.125252 c -2.51799,0 -4.54494,2.026845 -4.54494,4.544943 l 7.07089,7.071403 c 0,-2.517998 2.02694,-4.545459 4.54494,-4.545459 1.259,0 2.39586,0.507101 3.21686,1.328601 l -7.07089,-7.071403 c -0.821,-0.8215 -1.95786,-1.328085 -3.21686,-1.328085 z" />
        <path
           id="rect665"
           style="fill:none;fill-opacity:1;stroke:#000000;stroke-width:0.330729;stroke-linecap:round;stroke-linejoin:round;stroke-dasharray:none;paint-order:stroke fill markers"
           d="m -416.53569,-46.054233 c 2.51802,0 4.54516,2.027143 4.54516,4.545163 0,2.51802 -2.02714,4.545163 -4.54516,4.545163 -2.51803,0 -4.54516,-2.027143 -4.54516,-4.545163 0,-2.51802 2.02713,-4.545163 4.54516,-4.545163 z"
           transform="translate(1.0264369e-6)" />
      </g>
    </g>
  </g>
</svg>
