<?xml version="1.0" encoding="UTF-8" standalone="no"?>
<!-- Created with Inkscape (http://www.inkscape.org/) -->

<svg
   width="374.42899"
   height="541.05798"
   viewBox="0 0 99.067688 143.15497"
   version="1.1"
   id="svg1249"
   inkscape:version="1.2.1 (9c6d41e410, 2022-07-14)"
   sodipodi:docname="wall-0.svg"
   xmlns:inkscape="http://www.inkscape.org/namespaces/inkscape"
   xmlns:sodipodi="http://sodipodi.sourceforge.net/DTD/sodipodi-0.dtd"
   xmlns="http://www.w3.org/2000/svg"
   xmlns:svg="http://www.w3.org/2000/svg">
  <sodipodi:namedview
     id="namedview1251"
     pagecolor="#ffffff"
     bordercolor="#666666"
     borderopacity="1.0"
     inkscape:pageshadow="2"
     inkscape:pageopacity="0.0"
     inkscape:pagecheckerboard="0"
     inkscape:document-units="px"
     showgrid="false"
     units="px"
     lock-margins="true"
     fit-margin-top="5"
     fit-margin-left="5"
     fit-margin-right="5"
     fit-margin-bottom="5"
     inkscape:zoom="0.82646575"
     inkscape:cx="-150.64145"
     inkscape:cy="236.54943"
     inkscape:current-layer="layer1"
     inkscape:showpageshadow="2"
     inkscape:deskcolor="#d1d1d1"
     inkscape:window-width="1920"
     inkscape:window-height="1002"
     inkscape:window-x="-8"
     inkscape:window-y="-8"
     inkscape:window-maximized="1" />
  <defs
     id="defs1246">
    <filter
       style="color-interpolation-filters:sRGB"
       inkscape:label="Noise Fill"
       id="filter6820"
       x="-0.00091860862"
       y="-0.00047065475"
       width="1.0018373"
       height="1.0009413">
      <feTurbulence
         type="fractalNoise"
         baseFrequency="0.12 0.12"
         numOctaves="5"
         seed="166"
         result="turbulence"
         id="feTurbulence6804" />
      <feComposite
         in="SourceGraphic"
         in2="turbulence"
         operator="in"
         result="composite1"
         id="feComposite6806" />
      <feColorMatrix
         values="1 0 0 0 0 0 1 0 0 0 0 0 1 0 0 0 0 0 23.7395 -11.2275 "
         result="color"
         id="feColorMatrix6808" />
      <feFlood
         flood-opacity="1"
         flood-color="rgb(0,0,0)"
         result="flood"
         id="feFlood6810" />
      <feMerge
         result="merge"
         id="feMerge6816">
        <feMergeNode
           in="flood"
           id="feMergeNode6812" />
        <feMergeNode
           in="color"
           id="feMergeNode6814" />
      </feMerge>
      <feComposite
         in2="SourceGraphic"
         operator="in"
         result="composite2"
         id="feComposite6818" />
    </filter>
    <filter
       inkscape:label="Evanescent"
       inkscape:menu="Blurs"
       inkscape:menu-tooltip="Blur the contents of objects, preserving the outline and adding progressive transparency at edges"
       style="color-interpolation-filters:sRGB"
       id="filter26210"
       x="-0.39217639"
       y="-0.081250228"
       width="1.7843528"
       height="1.1625324">
      <feGaussianBlur
         result="result6"
         stdDeviation="3.6435025"
         in="SourceGraphic"
         id="feGaussianBlur26204" />
      <feColorMatrix
         values="1 0 0 0 0 0 1 0 0 0 0 0 1 0 0 0 0 0 1 0 "
         result="result7"
         in="SourceGraphic"
         id="feColorMatrix26206" />
      <feComposite
         operator="in"
         in="result6"
         in2="result7"
         id="feComposite26208" />
    </filter>
    <filter
       inkscape:label="Evanescent"
       inkscape:menu="Blurs"
       inkscape:menu-tooltip="Blur the contents of objects, preserving the outline and adding progressive transparency at edges"
       style="color-interpolation-filters:sRGB"
       id="filter24715"
       x="-0.39163786"
       y="-0.081244931"
       width="1.7832757"
       height="1.1624579">
      <feGaussianBlur
         result="result6"
         stdDeviation="3.6379033"
         in="SourceGraphic"
         id="feGaussianBlur24709" />
      <feColorMatrix
         values="1 0 0 0 0 0 1 0 0 0 0 0 1 0 0 0 0 0 1 0 "
         result="result7"
         in="SourceGraphic"
         id="feColorMatrix24711" />
      <feComposite
         operator="in"
         in="result6"
         in2="result7"
         id="feComposite24713" />
    </filter>
    <filter
       inkscape:collect="always"
       style="color-interpolation-filters:sRGB"
       id="filter11373"
       x="-0.016066094"
       y="-0.012225281"
       width="1.0321322"
       height="1.0244506">
      <feGaussianBlur
         inkscape:collect="always"
         stdDeviation="0.9779959"
         id="feGaussianBlur11375" />
    </filter>
    <filter
       style="color-interpolation-filters:sRGB"
       inkscape:label="Noise Fill"
       id="filter48104"
       x="-0.00090274488"
       y="-0.00067646656"
       width="1.0018055"
       height="1.0013529">
      <feTurbulence
         type="fractalNoise"
         baseFrequency="0.12 0.12"
         numOctaves="5"
         seed="166"
         result="turbulence"
         id="feTurbulence48088" />
      <feComposite
         in="SourceGraphic"
         in2="turbulence"
         operator="in"
         result="composite1"
         id="feComposite48090" />
      <feColorMatrix
         values="1 0 0 0 0 0 1 0 0 0 0 0 1 0 0 0 0 0 23.7395 -11.2275 "
         result="color"
         id="feColorMatrix48092" />
      <feFlood
         flood-opacity="1"
         flood-color="rgb(0,0,0)"
         result="flood"
         id="feFlood48094" />
      <feMerge
         result="merge"
         id="feMerge48100">
        <feMergeNode
           in="flood"
           id="feMergeNode48096" />
        <feMergeNode
           in="color"
           id="feMergeNode48098" />
      </feMerge>
      <feComposite
         in2="SourceGraphic"
         operator="in"
         result="composite2"
         id="feComposite48102" />
    </filter>
  </defs>
  <g
     inkscape:label="Warstwa 1"
     inkscape:groupmode="layer"
     id="layer1"
     transform="translate(-54.56319,-64.70118)">
    <g
       id="g49387"
       inkscape:label="sciana-orginal"
       transform="translate(1514.4794,426.81576)"
       style="display:inline;opacity:1">
      <path
         style="fill:#d8d8d8;fill-opacity:1;stroke:none;stroke-width:0.264583px;stroke-linecap:butt;stroke-linejoin:miter;stroke-opacity:1"
         d="m -1460.41,-216.97521 100.158,1e-5 v -146.33006 h -100.158 z"
         id="path49247" />
      <path
         id="rect49377"
         style="display:inline;stroke-width:0.264583;stroke-linecap:round;stroke-linejoin:round;paint-order:stroke fill markers;filter:url(#filter11373)"
         transform="matrix(0.6710275,0,0,0.7356922,-1032.1515,216.69965)"
         d="m -573.22017,-607.04889 h 18.99595 c 1.75488,0 3.16765,1.41277 3.16765,3.16765 v 7.45329 c 0,1.75488 -1.41277,3.16765 -3.16765,3.16765 h -18.99595 c -1.75488,0 -3.16765,-1.41277 -3.16765,-3.16765 v -7.45329 c 0,-1.75488 1.41277,-3.16765 3.16765,-3.16765 z m 27.51421,-0.028 h 37.01788 c 1.76201,0 3.18052,1.4185 3.18052,3.18051 v 7.48356 c 0,1.762 -1.41851,3.18051 -3.18052,3.18051 h -37.01788 c -1.76201,0 -3.18051,-1.41851 -3.18051,-3.18051 v -7.48356 c 0,-1.76201 1.4185,-3.18051 3.18051,-3.18051 z m 45.95278,8.9e-4 c -1.68907,0 -3.04895,1.41844 -3.04895,3.18019 v 7.48249 c 0,1.76175 1.35988,3.18018 3.04895,3.18018 h 9.1418 V -607.076 Z m -136.95408,-0.007 v 13.85654 h 9.05237 c 1.6726,0 3.01926,-1.41983 3.01926,-3.18332 v -7.48989 c 0,-1.76349 -1.34666,-3.18333 -3.01926,-3.18333 z m 54.47609,-15.86902 h 37.01789 c 1.762,0 3.18051,1.4185 3.18051,3.18051 v 7.48356 c 0,1.762 -1.41851,3.18051 -3.18051,3.18051 h -37.01789 c -1.762,0 -3.18051,-1.41851 -3.18051,-3.18051 v -7.48356 c 0,-1.76201 1.41851,-3.18051 3.18051,-3.18051 z m 73.47448,-0.0315 c -1.7026,0 -3.07347,1.4251 -3.07347,3.19511 v 7.5178 c 0,1.77 1.37087,3.19462 3.07347,3.19462 h 17.88501 v -13.90753 z m -110.50341,15.90647 h 37.01789 c 1.762,0 3.18051,1.4185 3.18051,3.18051 v 7.48356 c 0,1.762 -1.41851,3.18051 -3.18051,3.18051 h -37.01789 c -1.762,0 -3.18051,-1.41851 -3.18051,-3.18051 v -7.48356 c 0,-1.76201 1.41851,-3.18051 3.18051,-3.18051 z m 83.34573,-15.84784 h 18.73226 c 1.75509,0 3.16803,1.41294 3.16803,3.16802 v 7.45419 c 0,1.75508 -1.41294,3.16802 -3.16803,3.16802 h -18.73226 c -1.75509,0 -3.16803,-1.41294 -3.16803,-3.16802 v -7.45419 c 0,-1.75508 1.41294,-3.16802 3.16803,-3.16802 z m -74.34749,8.5e-4 h 18.99596 c 1.75487,0 3.16764,1.41277 3.16764,3.16765 v 7.45329 c 0,1.75488 -1.41277,3.16765 -3.16764,3.16765 h -18.99596 c -1.75487,0 -3.16764,-1.41277 -3.16764,-3.16765 v -7.45329 c 0,-1.75488 1.41277,-3.16765 3.16764,-3.16765 z m -26.05621,-0.0701 v 13.92877 h 17.67669 c 1.68279,0 3.03716,-1.42679 3.03716,-3.19949 v -7.52928 c 0,-1.77271 -1.35437,-3.2 -3.03716,-3.2 z m 63.0979,-16.60826 h 18.99595 c 1.75488,0 3.16765,1.41277 3.16765,3.16765 v 7.45329 c 0,1.75488 -1.41277,3.16765 -3.16765,3.16765 h -18.99595 c -1.75488,0 -3.16765,-1.41277 -3.16765,-3.16765 v -7.45329 c 0,-1.75488 1.41277,-3.16765 3.16765,-3.16765 z m 27.51421,-0.028 h 37.01788 c 1.76201,0 3.18052,1.4185 3.18052,3.18051 v 7.48356 c 0,1.762 -1.41851,3.18051 -3.18052,3.18051 h -37.01788 c -1.76201,0 -3.18051,-1.41851 -3.18051,-3.18051 v -7.48356 c 0,-1.76201 1.4185,-3.18051 3.18051,-3.18051 z m 45.95278,8.9e-4 c -1.68907,0 -3.04895,1.41844 -3.04895,3.18019 v 7.48249 c 0,1.76175 1.35988,3.18018 3.04895,3.18018 h 9.1418 v -13.84286 z m -136.95408,-0.007 v 13.85654 h 9.05237 c 1.6726,0 3.01926,-1.41983 3.01926,-3.18332 v -7.48989 c 0,-1.76349 -1.34666,-3.18333 -3.01926,-3.18333 z m 54.47609,-15.86902 h 37.01789 c 1.762,0 3.18051,1.4185 3.18051,3.18051 v 7.48356 c 0,1.762 -1.41851,3.18051 -3.18051,3.18051 h -37.01789 c -1.762,0 -3.18051,-1.41851 -3.18051,-3.18051 v -7.48356 c 0,-1.76201 1.41851,-3.18051 3.18051,-3.18051 z m 73.47448,-0.0315 c -1.7026,0 -3.07347,1.4251 -3.07347,3.19511 v 7.5178 c 0,1.77 1.37087,3.19462 3.07347,3.19462 h 17.88501 v -13.90753 z m -110.50341,15.90647 h 37.01789 c 1.762,0 3.18051,1.4185 3.18051,3.18051 v 7.48356 c 0,1.762 -1.41851,3.18051 -3.18051,3.18051 h -37.01789 c -1.762,0 -3.18051,-1.41851 -3.18051,-3.18051 v -7.48356 c 0,-1.76201 1.41851,-3.18051 3.18051,-3.18051 z m 83.34573,-15.84784 h 18.73226 c 1.75509,0 3.16803,1.41294 3.16803,3.16802 v 7.45419 c 0,1.75508 -1.41294,3.16802 -3.16803,3.16802 h -18.73226 c -1.75509,0 -3.16803,-1.41294 -3.16803,-3.16802 v -7.45419 c 0,-1.75508 1.41294,-3.16802 3.16803,-3.16802 z m -74.34749,8.5e-4 h 18.99596 c 1.75487,0 3.16764,1.41277 3.16764,3.16765 v 7.45329 c 0,1.75488 -1.41277,3.16765 -3.16764,3.16765 h -18.99596 c -1.75487,0 -3.16764,-1.41277 -3.16764,-3.16765 v -7.45329 c 0,-1.75488 1.41277,-3.16765 3.16764,-3.16765 z m -26.05621,-0.0701 v 13.92877 h 17.67669 c 1.68279,0 3.03716,-1.42679 3.03716,-3.19949 v -7.52928 c 0,-1.77271 -1.35437,-3.2 -3.03716,-3.2 z m 63.0979,-16.60825 h 18.99595 c 1.75488,0 3.16765,1.41277 3.16765,3.16765 v 7.45329 c 0,1.75488 -1.41277,3.16765 -3.16765,3.16765 h -18.99595 c -1.75488,0 -3.16765,-1.41277 -3.16765,-3.16765 v -7.45329 c 0,-1.75488 1.41277,-3.16765 3.16765,-3.16765 z m 27.51421,-0.028 h 37.01788 c 1.76201,0 3.18052,1.4185 3.18052,3.18051 v 7.48356 c 0,1.762 -1.41851,3.18051 -3.18052,3.18051 h -37.01788 c -1.76201,0 -3.18051,-1.41851 -3.18051,-3.18051 v -7.48356 c 0,-1.76201 1.4185,-3.18051 3.18051,-3.18051 z m 45.95278,9e-4 c -1.68907,0 -3.04895,1.41843 -3.04895,3.18019 v 7.48249 c 0,1.76174 1.35988,3.18018 3.04895,3.18018 h 9.1418 V -672.183 Z m -136.95408,-0.007 v 13.85654 h 9.05237 c 1.6726,0 3.01926,-1.41984 3.01926,-3.18332 v -7.48989 c 0,-1.76349 -1.34666,-3.18333 -3.01926,-3.18333 z m 54.47609,-15.86902 h 37.01789 c 1.762,0 3.18051,1.4185 3.18051,3.18051 v 7.48356 c 0,1.762 -1.41851,3.18051 -3.18051,3.18051 h -37.01789 c -1.762,0 -3.18051,-1.41851 -3.18051,-3.18051 v -7.48356 c 0,-1.76201 1.41851,-3.18051 3.18051,-3.18051 z m 73.47448,-0.0315 c -1.7026,0 -3.07347,1.42511 -3.07347,3.19512 v 7.5178 c 0,1.77 1.37087,3.19461 3.07347,3.19461 h 17.88501 v -13.90753 z m -110.50341,15.90648 h 37.01789 c 1.762,0 3.18051,1.4185 3.18051,3.18051 v 7.48356 c 0,1.762 -1.41851,3.18051 -3.18051,3.18051 h -37.01789 c -1.762,0 -3.18051,-1.41851 -3.18051,-3.18051 v -7.48356 c 0,-1.76201 1.41851,-3.18051 3.18051,-3.18051 z m 83.34573,-15.84784 h 18.73226 c 1.75509,0 3.16803,1.41294 3.16803,3.16802 v 7.45419 c 0,1.75508 -1.41294,3.16802 -3.16803,3.16802 h -18.73226 c -1.75509,0 -3.16803,-1.41294 -3.16803,-3.16802 v -7.45419 c 0,-1.75508 1.41294,-3.16802 3.16803,-3.16802 z m -74.34749,8.5e-4 h 18.99596 c 1.75487,0 3.16764,1.41277 3.16764,3.16765 v 7.45329 c 0,1.75488 -1.41277,3.16765 -3.16764,3.16765 h -18.99596 c -1.75487,0 -3.16764,-1.41277 -3.16764,-3.16765 v -7.45329 c 0,-1.75488 1.41277,-3.16765 3.16764,-3.16765 z m -26.05621,-0.0701 v 13.92877 h 17.67669 c 1.68279,0 3.03716,-1.42679 3.03716,-3.19949 v -7.52928 c 0,-1.77271 -1.35437,-3.2 -3.03716,-3.2 z m 63.0979,-16.2341 h 18.99595 c 1.75488,0 3.16765,1.41277 3.16765,3.16765 v 7.45329 c 0,1.75488 -1.41277,3.16765 -3.16765,3.16765 h -18.99595 c -1.75488,0 -3.16765,-1.41277 -3.16765,-3.16765 v -7.45329 c 0,-1.75488 1.41277,-3.16765 3.16765,-3.16765 z m 27.51421,-0.028 h 37.01788 c 1.76201,0 3.18052,1.4185 3.18052,3.18051 v 7.48356 c 0,1.762 -1.41851,3.18051 -3.18052,3.18051 h -37.01788 c -1.76201,0 -3.18051,-1.41851 -3.18051,-3.18051 v -7.48356 c 0,-1.76201 1.4185,-3.18051 3.18051,-3.18051 z m 45.95278,9e-4 c -1.68907,0 -3.04895,1.41843 -3.04895,3.18019 v 7.48249 c 0,1.76174 1.35988,3.18018 3.04895,3.18018 h 9.1418 v -13.84286 z m -136.95408,-0.007 v 13.85654 h 9.05237 c 1.6726,0 3.01926,-1.41983 3.01926,-3.18332 v -7.48989 c 0,-1.76349 -1.34666,-3.18333 -3.01926,-3.18333 z m 54.47609,-15.86902 h 37.01789 c 1.762,0 3.18051,1.4185 3.18051,3.18051 v 7.48356 c 0,1.762 -1.41851,3.18051 -3.18051,3.18051 h -37.01789 c -1.762,0 -3.18051,-1.41851 -3.18051,-3.18051 v -7.48356 c 0,-1.76201 1.41851,-3.18051 3.18051,-3.18051 z m 73.47448,-0.0315 c -1.7026,0 -3.07347,1.42511 -3.07347,3.19512 v 7.5178 c 0,1.77 1.37087,3.19461 3.07347,3.19461 h 17.88501 v -13.90753 z m -110.50341,15.90648 h 37.01789 c 1.762,0 3.18051,1.4185 3.18051,3.18051 v 7.48356 c 0,1.762 -1.41851,3.18051 -3.18051,3.18051 h -37.01789 c -1.762,0 -3.18051,-1.41851 -3.18051,-3.18051 v -7.48356 c 0,-1.76201 1.41851,-3.18051 3.18051,-3.18051 z m 83.34573,-15.84784 h 18.73226 c 1.75509,0 3.16803,1.41294 3.16803,3.16802 v 7.45419 c 0,1.75508 -1.41294,3.16802 -3.16803,3.16802 h -18.73226 c -1.75509,0 -3.16803,-1.41294 -3.16803,-3.16802 v -7.45419 c 0,-1.75508 1.41294,-3.16802 3.16803,-3.16802 z m -74.34749,8.5e-4 h 18.99596 c 1.75487,0 3.16764,1.41277 3.16764,3.16765 v 7.45329 c 0,1.75488 -1.41277,3.16765 -3.16764,3.16765 h -18.99596 c -1.75487,0 -3.16764,-1.41277 -3.16764,-3.16765 v -7.45329 c 0,-1.75488 1.41277,-3.16765 3.16764,-3.16765 z m -26.05621,-0.0701 v 13.92877 h 17.67669 c 1.68279,0 3.03716,-1.42679 3.03716,-3.19949 v -7.52928 c 0,-1.77271 -1.35437,-3.2 -3.03716,-3.2 z m 63.0979,-16.33809 h 18.99595 c 1.75488,0 3.16765,1.41277 3.16765,3.16766 v 7.4533 c 0,1.75489 -1.41277,3.16766 -3.16765,3.16766 h -18.99595 c -1.75488,0 -3.16765,-1.41277 -3.16765,-3.16766 v -7.4533 c 0,-1.75489 1.41277,-3.16766 3.16765,-3.16766 z m 27.51421,-0.028 h 37.01788 c 1.76201,0 3.18052,1.4185 3.18052,3.18052 v 7.48357 c 0,1.76201 -1.41851,3.18052 -3.18052,3.18052 h -37.01788 c -1.76201,0 -3.18051,-1.41851 -3.18051,-3.18052 v -7.48357 c 0,-1.76202 1.4185,-3.18052 3.18051,-3.18052 z m 45.95278,9e-4 c -1.68907,0 -3.04895,1.41843 -3.04895,3.1802 v 7.4825 c 0,1.76175 1.35988,3.18019 3.04895,3.18019 h 9.1418 v -13.84289 z m -136.95408,-0.007 v 13.85658 h 9.05237 c 1.6726,0 3.01926,-1.41984 3.01926,-3.18334 v -7.48989 c 0,-1.76351 -1.34666,-3.18335 -3.01926,-3.18335 z m 54.47609,-15.86906 h 37.01789 c 1.762,0 3.18051,1.4185 3.18051,3.18052 v 7.48358 c 0,1.762 -1.41851,3.18051 -3.18051,3.18051 h -37.01789 c -1.762,0 -3.18051,-1.41851 -3.18051,-3.18051 v -7.48358 c 0,-1.76202 1.41851,-3.18052 3.18051,-3.18052 z m 73.47448,-0.0315 c -1.7026,0 -3.07347,1.42511 -3.07347,3.19513 v 7.51782 c 0,1.77 1.37087,3.19462 3.07347,3.19462 h 17.88501 v -13.90757 z m -110.50341,15.90652 h 37.01789 c 1.762,0 3.18051,1.4185 3.18051,3.18052 v 7.48357 c 0,1.76201 -1.41851,3.18052 -3.18051,3.18052 h -37.01789 c -1.762,0 -3.18051,-1.41851 -3.18051,-3.18052 v -7.48357 c 0,-1.76202 1.41851,-3.18052 3.18051,-3.18052 z m 83.34573,-15.84788 h 18.73226 c 1.75509,0 3.16803,1.41294 3.16803,3.16803 v 7.45421 c 0,1.75508 -1.41294,3.16802 -3.16803,3.16802 h -18.73226 c -1.75509,0 -3.16803,-1.41294 -3.16803,-3.16802 v -7.45421 c 0,-1.75509 1.41294,-3.16803 3.16803,-3.16803 z m -74.34749,8.5e-4 h 18.99596 c 1.75487,0 3.16764,1.41277 3.16764,3.16766 v 7.45331 c 0,1.75488 -1.41277,3.16765 -3.16764,3.16765 h -18.99596 c -1.75487,0 -3.16764,-1.41277 -3.16764,-3.16765 v -7.45331 c 0,-1.75489 1.41277,-3.16766 3.16764,-3.16766 z m -26.05621,-0.0701 v 13.92879 h 17.67669 c 1.68279,0 3.03716,-1.42679 3.03716,-3.19949 v -7.5293 c 0,-1.77272 -1.35437,-3.2 -3.03716,-3.2 z m 63.0979,-16.71222 h 18.99595 c 1.75488,0 3.16765,1.41277 3.16765,3.16766 v 7.45331 c 0,1.75488 -1.41277,3.16765 -3.16765,3.16765 h -18.99595 c -1.75488,0 -3.16765,-1.41277 -3.16765,-3.16765 v -7.45331 c 0,-1.75489 1.41277,-3.16766 3.16765,-3.16766 z m 27.51421,-0.028 h 37.01788 c 1.76201,0 3.18052,1.4185 3.18052,3.18052 v 7.48358 c 0,1.762 -1.41851,3.18051 -3.18052,3.18051 h -37.01788 c -1.76201,0 -3.18051,-1.41851 -3.18051,-3.18051 v -7.48358 c 0,-1.76202 1.4185,-3.18052 3.18051,-3.18052 z m 45.95278,9e-4 c -1.68907,0 -3.04895,1.41844 -3.04895,3.1802 v 7.48251 c 0,1.76175 1.35988,3.18018 3.04895,3.18018 h 9.1418 v -13.84289 z m -136.95408,-0.007 v 13.85657 h 9.05237 c 1.6726,0 3.01926,-1.41984 3.01926,-3.18332 v -7.48991 c 0,-1.76351 -1.34666,-3.18334 -3.01926,-3.18334 z m 54.47609,-15.86907 h 37.01789 c 1.762,0 3.18051,1.41851 3.18051,3.18052 v 7.48358 c 0,1.762 -1.41851,3.18052 -3.18051,3.18052 h -37.01789 c -1.762,0 -3.18051,-1.41852 -3.18051,-3.18052 v -7.48358 c 0,-1.76201 1.41851,-3.18052 3.18051,-3.18052 z m 73.47448,-0.0315 c -1.7026,0 -3.07347,1.42512 -3.07347,3.19512 v 7.51783 c 0,1.77 1.37087,3.19462 3.07347,3.19462 h 17.88501 v -13.90757 z m -110.50341,15.90651 h 37.01789 c 1.762,0 3.18051,1.4185 3.18051,3.18052 v 7.48358 c 0,1.762 -1.41851,3.18051 -3.18051,3.18051 h -37.01789 c -1.762,0 -3.18051,-1.41851 -3.18051,-3.18051 v -7.48358 c 0,-1.76202 1.41851,-3.18052 3.18051,-3.18052 z m 83.34573,-15.84788 h 18.73226 c 1.75509,0 3.16803,1.41295 3.16803,3.16803 v 7.45421 c 0,1.75508 -1.41294,3.16803 -3.16803,3.16803 h -18.73226 c -1.75509,0 -3.16803,-1.41295 -3.16803,-3.16803 v -7.45421 c 0,-1.75508 1.41294,-3.16803 3.16803,-3.16803 z m -74.34749,8.5e-4 h 18.99596 c 1.75487,0 3.16764,1.41278 3.16764,3.16766 v 7.45331 c 0,1.75488 -1.41277,3.16766 -3.16764,3.16766 h -18.99596 c -1.75487,0 -3.16764,-1.41278 -3.16764,-3.16766 v -7.45331 c 0,-1.75488 1.41277,-3.16766 3.16764,-3.16766 z m -26.05621,-0.07 v 13.92881 h 17.67669 c 1.68279,0 3.03716,-1.4268 3.03716,-3.1995 v -7.5293 c 0,-1.77271 -1.35437,-3.20001 -3.03716,-3.20001 z" />
      <path
         id="path49383"
         style="display:inline;fill:#ff6600;fill-opacity:1;stroke:#000000;stroke-width:0.1859;stroke-linecap:round;stroke-linejoin:round;stroke-miterlimit:4;stroke-dasharray:none;paint-order:stroke fill markers"
         d="m -1460.4406,-350.76529 h 13.04 c 1.1824,0 2.1337,-1.04347 2.1337,-2.33974 v -5.50522 c 0,-1.29629 -0.9513,-2.34026 -2.1337,-2.34026 h -13.04 m 37.5958,0 c -1.1824,0 -2.1342,1.04397 -2.1342,2.34026 v 5.50522 c 0,1.2963 0.9518,2.33974 2.1342,2.33974 h 24.8403 c 1.1823,0 2.1342,-1.04344 2.1342,-2.33974 v -5.50522 c 0,-1.29629 -0.9519,-2.34026 -2.1342,-2.34026 z m 62.5916,0 h -13.195 c -1.1824,0 -2.1342,1.04397 -2.1342,2.34026 v 5.50522 c 0,1.29627 0.9518,2.33974 2.1342,2.33974 h 13.195 m -81.4012,-10.16512 c -1.1775,0 -2.1254,1.0394 -2.1254,2.33047 v 5.48338 c 0,1.29107 0.9479,2.33047 2.1254,2.33047 h 12.7473 c 1.1776,0 2.1259,-1.0394 2.1259,-2.33047 v -5.48338 c 0,-1.29107 -0.9483,-2.33047 -2.1259,-2.33047 z m 49.8898,0 c -1.1777,0 -2.1265,1.03928 -2.1265,2.33047 v 5.48394 c 0,1.29121 0.9488,2.33046 2.1265,2.33046 h 12.5696 c 1.1777,0 2.1259,-1.03925 2.1259,-2.33046 v -5.48394 c 0,-1.29119 -0.9482,-2.33047 -2.1259,-2.33047 z m -55.9272,11.65834 c -1.1824,0 -2.1347,1.044 -2.1347,2.34029 v 5.50574 c 0,1.29632 0.9523,2.3392 2.1347,2.3392 h 24.8397 c 1.1824,0 2.1342,-1.04288 2.1342,-2.3392 v -5.50574 c 0,-1.29629 -0.9518,-2.34029 -2.1342,-2.34029 z m 49.3568,0 c -1.1824,0 -2.1347,1.044 -2.1347,2.34029 v 5.50574 c 0,1.29632 0.9523,2.3392 2.1347,2.3392 h 24.8398 c 1.1824,0 2.1342,-1.04288 2.1342,-2.3392 v -5.50574 c 0,-1.29629 -0.9518,-2.34029 -2.1342,-2.34029 z m -62.1056,10.16503 h 6.9932 c 1.1776,0 2.1254,-1.03942 2.1254,-2.33047 v -5.48339 c 0,-1.29105 -0.9478,-2.33047 -2.1254,-2.33047 h -6.9932 m 43.6426,0 c -1.1776,0 -2.1255,1.03942 -2.1255,2.33047 v 5.48339 c 0,1.29105 0.9479,2.33047 2.1255,2.33047 h 12.7467 c 1.1776,0 2.1259,-1.03942 2.1259,-2.33047 v -5.48339 c 0,-1.29105 -0.9483,-2.33047 -2.1259,-2.33047 z m 56.5448,0 h -7.1488 c -1.1776,0 -2.1254,1.03942 -2.1254,2.33047 v 5.48339 c 0,1.29105 0.9478,2.33047 2.1254,2.33047 h 7.1488 m -100.1874,12.36789 h 13.04 c 1.1824,0 2.1337,-1.04345 2.1337,-2.33974 v -5.50574 c 0,-1.29629 -0.9513,-2.34029 -2.1337,-2.34029 h -13.04 m 37.5958,0 c -1.1824,0 -2.1342,1.044 -2.1342,2.34029 v 5.5052 c 0,1.29632 0.9518,2.34028 2.1342,2.34028 h 24.8403 c 1.1823,0 2.1342,-1.04396 2.1342,-2.34028 v -5.5052 c 0,-1.29629 -0.9519,-2.34029 -2.1342,-2.34029 z m 62.5916,0 h -13.195 c -1.1824,0 -2.1342,1.044 -2.1342,2.34029 v 5.50574 c 0,1.29629 0.9518,2.33974 2.1342,2.33974 h 13.195 m -81.4012,-10.16507 c -1.1775,0 -2.1254,1.03887 -2.1254,2.32992 v 5.48339 c 0,1.29105 0.9479,2.33101 2.1254,2.33101 h 12.7473 c 1.1776,0 2.1259,-1.03996 2.1259,-2.33101 v -5.48339 c 0,-1.29105 -0.9483,-2.32992 -2.1259,-2.32992 z m 49.8898,0 c -1.1777,0 -2.1265,1.03872 -2.1265,2.32992 v 5.48448 c 0,1.29122 0.9488,2.33047 2.1265,2.33047 h 12.5696 c 1.1777,0 2.1259,-1.03925 2.1259,-2.33047 v -5.48448 c 0,-1.2912 -0.9482,-2.32992 -2.1259,-2.32992 z m -55.9272,11.65833 c -1.1824,0 -2.1347,1.044 -2.1347,2.34029 v 5.5052 c 0,1.2963 0.9523,2.33974 2.1347,2.33974 h 24.8397 c 1.1824,0 2.1342,-1.04344 2.1342,-2.33974 v -5.5052 c 0,-1.29629 -0.9518,-2.34029 -2.1342,-2.34029 z m 49.3568,0 c -1.1824,0 -2.1347,1.044 -2.1347,2.34029 v 5.5052 c 0,1.2963 0.9523,2.33974 2.1347,2.33974 h 24.8398 c 1.1824,0 2.1342,-1.04344 2.1342,-2.33974 v -5.5052 c 0,-1.29629 -0.9518,-2.34029 -2.1342,-2.34029 z m -62.1056,10.16502 h 6.9932 c 1.1776,0 2.1254,-1.03994 2.1254,-2.33101 v -5.48284 c 0,-1.29105 -0.9478,-2.33047 -2.1254,-2.33047 h -6.9932 m 43.6426,0 c -1.1776,0 -2.1255,1.03942 -2.1255,2.33047 v 5.48284 c 0,1.29107 0.9479,2.33101 2.1255,2.33101 h 12.7467 c 1.1776,0 2.1259,-1.03994 2.1259,-2.33101 v -5.48284 c 0,-1.29105 -0.9483,-2.33047 -2.1259,-2.33047 z m 56.5448,0 h -7.1488 c -1.1776,0 -2.1254,1.03942 -2.1254,2.33047 v 5.48284 c 0,1.29107 0.9478,2.33101 2.1254,2.33101 h 7.1488 m -100.1874,12.09193 h 13.04 c 1.1824,0 2.1337,-1.04292 2.1337,-2.3392 v -5.50575 c 0,-1.2963 -0.9513,-2.34028 -2.1337,-2.34028 h -13.04 m 37.5958,0 c -1.1824,0 -2.1342,1.04398 -2.1342,2.34028 v 5.50521 c 0,1.2963 0.9518,2.33974 2.1342,2.33974 h 24.8403 c 1.1823,0 2.1342,-1.04344 2.1342,-2.33974 v -5.50521 c 0,-1.2963 -0.9519,-2.34028 -2.1342,-2.34028 z m 62.5916,0 h -13.195 c -1.1824,0 -2.1342,1.04398 -2.1342,2.34028 v 5.50575 c 0,1.29628 0.9518,2.3392 2.1342,2.3392 h 13.195 m -81.4012,-10.16503 c -1.1775,0 -2.1254,1.03942 -2.1254,2.33047 v 5.48338 c 0,1.29103 0.9479,2.33047 2.1254,2.33047 h 12.7473 c 1.1776,0 2.1259,-1.03944 2.1259,-2.33047 v -5.48338 c 0,-1.29105 -0.9483,-2.33047 -2.1259,-2.33047 z m 49.8898,0 c -1.1777,0 -2.1265,1.03926 -2.1265,2.33047 v 5.48393 c 0,1.29118 0.9488,2.33047 2.1265,2.33047 h 12.5696 c 1.1777,0 2.1259,-1.03929 2.1259,-2.33047 v -5.48393 c 0,-1.29121 -0.9482,-2.33047 -2.1259,-2.33047 z m -55.9272,11.65833 c -1.1824,0 -2.1347,1.04401 -2.1347,2.34029 v 5.50575 c 0,1.29632 0.9523,2.33973 2.1347,2.33973 h 24.8397 c 1.1824,0 2.1342,-1.04341 2.1342,-2.33973 v -5.50575 c 0,-1.29628 -0.9518,-2.34029 -2.1342,-2.34029 z m 49.3568,0 c -1.1824,0 -2.1347,1.04401 -2.1347,2.34029 v 5.50575 c 0,1.29632 0.9523,2.33973 2.1347,2.33973 h 24.8398 c 1.1824,0 2.1342,-1.04341 2.1342,-2.33973 v -5.50575 c 0,-1.29628 -0.9518,-2.34029 -2.1342,-2.34029 z m -62.1056,10.16508 h 6.9932 c 1.1776,0 2.1254,-1.03944 2.1254,-2.33047 v -5.48339 c 0,-1.29105 -0.9478,-2.32992 -2.1254,-2.32992 h -6.9932 m 43.6426,0 c -1.1776,0 -2.1255,1.03887 -2.1255,2.32992 v 5.48339 c 0,1.29103 0.9479,2.33047 2.1255,2.33047 h 12.7467 c 1.1776,0 2.1259,-1.03944 2.1259,-2.33047 v -5.48339 c 0,-1.29105 -0.9483,-2.32992 -2.1259,-2.32992 z m 56.5448,0 h -7.1488 c -1.1776,0 -2.1254,1.03887 -2.1254,2.32992 v 5.48339 c 0,1.29103 0.9478,2.33047 2.1254,2.33047 h 7.1488 m -100.1874,12.01556 h 13.04 c 1.1824,0 2.1337,-1.04291 2.1337,-2.33919 v -5.50575 c 0,-1.29628 -0.9513,-2.33974 -2.1337,-2.33974 h -13.04 m 37.5958,0 c -1.1824,0 -2.1342,1.04346 -2.1342,2.33974 v 5.50521 c 0,1.29632 0.9518,2.33973 2.1342,2.33973 h 24.8403 c 1.1823,0 2.1342,-1.04341 2.1342,-2.33973 v -5.50521 c 0,-1.29628 -0.9519,-2.33974 -2.1342,-2.33974 z m 62.5916,0 h -13.195 c -1.1824,0 -2.1342,1.04346 -2.1342,2.33974 v 5.50575 c 0,1.29628 0.9518,2.33919 2.1342,2.33919 h 13.195 m -81.4012,-10.16448 c -1.1775,0 -2.1254,1.03942 -2.1254,2.33047 v 5.48284 c 0,1.29105 0.9479,2.33101 2.1254,2.33101 h 12.7473 c 1.1776,0 2.1259,-1.03996 2.1259,-2.33101 v -5.48284 c 0,-1.29105 -0.9483,-2.33047 -2.1259,-2.33047 z m 49.8898,0 c -1.1777,0 -2.1265,1.03927 -2.1265,2.33047 v 5.48393 c 0,1.29121 0.9488,2.33047 2.1265,2.33047 h 12.5696 c 1.1777,0 2.1259,-1.03926 2.1259,-2.33047 v -5.48393 c 0,-1.2912 -0.9482,-2.33047 -2.1259,-2.33047 z m -55.9272,11.65834 c -1.1824,0 -2.1347,1.04345 -2.1347,2.33974 v 5.50574 c 0,1.29632 0.9523,2.3392 2.1347,2.3392 h 24.8397 c 1.1824,0 2.1342,-1.04288 2.1342,-2.3392 v -5.50574 c 0,-1.29629 -0.9518,-2.33974 -2.1342,-2.33974 z m 49.3568,0 c -1.1824,0 -2.1347,1.04345 -2.1347,2.33974 v 5.50574 c 0,1.29632 0.9523,2.3392 2.1347,2.3392 h 24.8398 c 1.1824,0 2.1342,-1.04288 2.1342,-2.3392 v -5.50574 c 0,-1.29629 -0.9518,-2.33974 -2.1342,-2.33974 z m -62.1056,10.16502 h 6.9932 c 1.1776,0 2.1254,-1.03997 2.1254,-2.33102 v -5.48284 c 0,-1.29105 -0.9478,-2.33046 -2.1254,-2.33046 h -6.9932 m 43.6426,0 c -1.1776,0 -2.1255,1.03941 -2.1255,2.33046 v 5.48284 c 0,1.29105 0.9479,2.33102 2.1255,2.33102 h 12.7467 c 1.1776,0 2.1259,-1.03997 2.1259,-2.33102 v -5.48284 c 0,-1.29105 -0.9483,-2.33046 -2.1259,-2.33046 z m 56.5448,0 h -7.1488 c -1.1776,0 -2.1254,1.03941 -2.1254,2.33046 v 5.48284 c 0,1.29105 0.9478,2.33102 2.1254,2.33102 h 7.1488 m -100.1874,12.29099 h 13.04 c 1.1824,0 2.1337,-1.04346 2.1337,-2.33974 v -5.5063 c 0,-1.2963 -0.9513,-2.33919 -2.1337,-2.33919 h -13.04 m 37.5958,0 c -1.1824,0 -2.1342,1.04289 -2.1342,2.33919 v 5.50575 c 0,1.2963 0.9518,2.34029 2.1342,2.34029 h 24.8403 c 1.1823,0 2.1342,-1.04399 2.1342,-2.34029 v -5.50575 c 0,-1.2963 -0.9519,-2.33919 -2.1342,-2.33919 z m 62.5916,0 h -13.195 c -1.1824,0 -2.1342,1.04289 -2.1342,2.33919 v 5.5063 c 0,1.29628 0.9518,2.33974 2.1342,2.33974 h 13.195 m -81.4012,-10.16563 c -1.1775,0 -2.1254,1.03999 -2.1254,2.33101 v 5.48285 c 0,1.29103 0.9479,2.33046 2.1254,2.33046 h 12.7473 c 1.1776,0 2.1259,-1.03943 2.1259,-2.33046 v -5.48285 c 0,-1.29102 -0.9483,-2.33101 -2.1259,-2.33101 z m 49.8898,0 c -1.1777,0 -2.1265,1.03983 -2.1265,2.33101 v 5.48394 c 0,1.29118 0.9488,2.33046 2.1265,2.33046 h 12.5696 c 1.1777,0 2.1259,-1.03928 2.1259,-2.33046 v -5.48394 c 0,-1.29118 -0.9482,-2.33101 -2.1259,-2.33101 z m -55.9272,11.65888 c -1.1824,0 -2.1347,1.04346 -2.1347,2.33974 v 5.5052 c 0,1.29632 0.9523,2.34029 2.1347,2.34029 h 24.8397 c 1.1824,0 2.1342,-1.04397 2.1342,-2.34029 v -5.5052 c 0,-1.29628 -0.9518,-2.33974 -2.1342,-2.33974 z m 49.3568,0 c -1.1824,0 -2.1347,1.04346 -2.1347,2.33974 v 5.5052 c 0,1.29632 0.9523,2.34029 2.1347,2.34029 h 24.8398 c 1.1824,0 2.1342,-1.04397 2.1342,-2.34029 v -5.5052 c 0,-1.29628 -0.9518,-2.33974 -2.1342,-2.33974 z m -62.1056,10.16452 h 6.9932 c 1.1776,0 2.1254,-1.03944 2.1254,-2.33047 v -5.48284 c 0,-1.29102 -0.9478,-2.33101 -2.1254,-2.33101 h -6.9932 m 43.6426,0 c -1.1776,0 -2.1255,1.03999 -2.1255,2.33101 v 5.48284 c 0,1.29103 0.9479,2.33047 2.1255,2.33047 h 12.7467 c 1.1776,0 2.1259,-1.03944 2.1259,-2.33047 v -5.48284 c 0,-1.29102 -0.9483,-2.33101 -2.1259,-2.33101 z m 56.5448,0 h -7.1488 c -1.1776,0 -2.1254,1.03999 -2.1254,2.33101 v 5.48284 c 0,1.29103 0.9478,2.33047 2.1254,2.33047 h 7.1488 m -100.1874,12.29154 h 13.04 c 1.1824,0 2.1337,-1.04346 2.1337,-2.33974 v -5.50575 c 0,-1.29628 -0.9513,-2.34028 -2.1337,-2.34028 h -13.04 m 37.5958,0 c -1.1824,0 -2.1342,1.044 -2.1342,2.34028 v 5.50575 c 0,1.2963 0.9518,2.33974 2.1342,2.33974 h 24.8403 c 1.1823,0 2.1342,-1.04344 2.1342,-2.33974 v -5.50575 c 0,-1.29628 -0.9519,-2.34028 -2.1342,-2.34028 z m 62.5916,0 h -13.195 c -1.1824,0 -2.1342,1.044 -2.1342,2.34028 v 5.50575 c 0,1.29628 0.9518,2.33974 2.1342,2.33974 h 13.195 m -81.4012,-10.16507 c -1.1775,0 -2.1254,1.03887 -2.1254,2.32992 v 5.48393 c 0,1.29105 0.9479,2.32992 2.1254,2.32992 h 12.7473 c 1.1776,0 2.1259,-1.03887 2.1259,-2.32992 v -5.48393 c 0,-1.29105 -0.9483,-2.32992 -2.1259,-2.32992 z m 49.8898,0 c -1.1777,0 -2.1265,1.03872 -2.1265,2.32992 v 5.48448 c 0,1.2912 0.9488,2.33046 2.1265,2.33046 h 12.5696 c 1.1777,0 2.1259,-1.03926 2.1259,-2.33046 v -5.48448 c 0,-1.2912 -0.9482,-2.32992 -2.1259,-2.32992 z m -55.9272,11.65833 c -1.1824,0 -2.1347,1.04343 -2.1347,2.33974 v 5.50575 c 0,1.2963 0.9523,2.33973 2.1347,2.33973 h 24.8397 c 1.1824,0 2.1342,-1.04343 2.1342,-2.33973 v -5.50575 c 0,-1.29631 -0.9518,-2.33974 -2.1342,-2.33974 z m 49.3568,0 c -1.1824,0 -2.1347,1.04343 -2.1347,2.33974 v 5.50575 c 0,1.2963 0.9523,2.33973 2.1347,2.33973 h 24.8398 c 1.1824,0 2.1342,-1.04343 2.1342,-2.33973 v -5.50575 c 0,-1.29631 -0.9518,-2.33974 -2.1342,-2.33974 z m -62.1056,10.16502 h 6.9932 c 1.1776,0 2.1254,-1.0394 2.1254,-2.33047 v -5.48339 c 0,-1.29104 -0.9478,-2.33046 -2.1254,-2.33046 h -6.9932 m 43.6426,0 c -1.1776,0 -2.1255,1.03942 -2.1255,2.33046 v 5.48339 c 0,1.29107 0.9479,2.33047 2.1255,2.33047 h 12.7467 c 1.1776,0 2.1259,-1.0394 2.1259,-2.33047 v -5.48339 c 0,-1.29104 -0.9483,-2.33046 -2.1259,-2.33046 z m 56.5448,0 h -7.1488 c -1.1776,0 -2.1254,1.03942 -2.1254,2.33046 v 5.48339 c 0,1.29107 0.9478,2.33047 2.1254,2.33047 h 7.1488"
         sodipodi:nodetypes="csssscssssssssscsssscsssssssssssssssssssssssssssssssssssscsssscscssssssscssssccsssscssssssssscsssscsssssssssssssssssssssssssssssssssssscsssscscssssssscssssccsssscssssssssscsssscsssssssssssssssssssssssssssssssssssscsssscscssssssscssssccsssscssssssssscsssscsssssssssssssssssssssssssssssssssssscsssscscssssssscssssccsssscssssssssscsssscsssssssssssssssssssssssssssssssssssscsssscscssssssscssssccsssscssssssssscsssscsssssssssssssssssssssssssssssssssssscsssscscssssssscssssc" />
      <path
         id="path49385"
         style="display:inline;opacity:0.115663;fill:#ff6600;fill-opacity:1;stroke:#000000;stroke-width:0.684182;stroke-linecap:round;stroke-linejoin:round;stroke-miterlimit:4;stroke-dasharray:none;paint-order:stroke fill markers;filter:url(#filter48104)"
         d="m 447.50996,-1060.7773 v 36.4746 h 49.32207 c 4.47217,0 8.07031,-3.7368 8.07031,-8.3789 v -19.7149 c 0,-4.6422 -3.59814,-8.3808 -8.07031,-8.3808 z m 142.20098,0 c -4.47217,0 -8.07227,3.7386 -8.07227,8.3808 v 19.7149 c 0,4.6422 3.6001,8.3789 8.07227,8.3789 h 93.95508 c 4.4721,0 8.07226,-3.7367 8.07226,-8.3789 v -19.7149 c 0,-4.6422 -3.60016,-8.3808 -8.07226,-8.3808 z m 186.83594,0 c -4.47204,0 -8.07227,3.7386 -8.07227,8.3808 v 19.7149 c 0,4.6421 3.60023,8.3789 8.07227,8.3789 h 49.90845 v -36.4746 z m -257.98047,0.072 c -4.45404,0 -8.03907,3.7222 -8.03907,8.3457 v 19.6367 c 0,4.6235 3.58503,8.3457 8.03907,8.3457 h 48.21484 c 4.45404,0 8.04102,-3.7222 8.04102,-8.3457 v -19.6367 c 0,-4.6235 -3.58698,-8.3457 -8.04102,-8.3457 z m 188.70117,0 c -4.45451,0 -8.04297,3.7218 -8.04297,8.3457 v 19.6387 c 0,4.624 3.58846,8.3457 8.04297,8.3457 h 47.54297 c 4.45451,0 8.04101,-3.7217 8.04101,-8.3457 v -19.6387 c 0,-4.6239 -3.5865,-8.3457 -8.04101,-8.3457 z m -211.53711,41.75 c -4.4721,0 -8.07422,3.7387 -8.07422,8.3809 v 19.71678 c 0,4.64229 3.60212,8.37695 8.07422,8.37695 h 93.95312 c 4.47211,0 8.07227,-3.73466 8.07227,-8.37695 v -19.71678 c 0,-4.6422 -3.60016,-8.3809 -8.07227,-8.3809 z m 186.68555,0 c -4.47218,0 -8.07422,3.7387 -8.07422,8.3809 v 19.71678 c 0,4.64229 3.60204,8.37695 8.07422,8.37695 h 93.95312 c 4.47217,0 8.07227,-3.73466 8.07227,-8.37695 v -19.71678 c 0,-4.6422 -3.6001,-8.3809 -8.07227,-8.3809 z m -234.90606,0.074 v 36.32817 h 26.45098 c 4.45397,0 8.03906,-3.7223 8.03906,-8.34571 v -19.63676 c 0,-4.6234 -3.58509,-8.3457 -8.03906,-8.3457 z m 165.07207,0 c -4.45404,0 -8.03913,3.7223 -8.03906,8.3457 v 19.63676 c 0,4.62341 3.58502,8.34571 8.03906,8.34571 h 48.21289 c 4.45404,0 8.04102,-3.7223 8.04102,-8.34571 v -19.63676 c 0,-4.6234 -3.58698,-8.3457 -8.04102,-8.3457 z m 186.83399,0 c -4.45411,0 -8.03907,3.7223 -8.03907,8.3457 v 19.63676 c 0,4.62341 3.58496,8.34571 8.03907,8.34571 h 27.03931 v -36.32817 z m -351.90606,44.14262 v 36.47656 h 49.32207 c 4.47217,0 8.07031,-3.73675 8.07031,-8.3789 v -19.7168 c 0,-4.64216 -3.59814,-8.38086 -8.07031,-8.38086 z m 142.20098,0 c -4.47217,0 -8.07227,3.7387 -8.07227,8.38086 v 19.71484 c 0,4.64229 3.6001,8.38086 8.07227,8.38086 h 93.95508 c 4.4721,0 8.07226,-3.73857 8.07226,-8.38086 v -19.71484 c 0,-4.64216 -3.60016,-8.38086 -8.07226,-8.38086 z m 186.83594,0 c -4.47204,0 -8.07227,3.7387 -8.07227,8.38086 v 19.7168 c 0,4.64215 3.60023,8.3789 8.07227,8.3789 h 49.90845 v -36.47656 z m -257.98047,0.0742 c -4.45404,0 -8.03907,3.72034 -8.03907,8.34375 v 19.63672 c 0,4.62341 3.58503,8.34765 8.03907,8.34765 h 48.21484 c 4.45404,0 8.04102,-3.72424 8.04102,-8.34765 v -19.63672 c 0,-4.62341 -3.58698,-8.34375 -8.04102,-8.34375 z m 188.70117,0 c -4.45451,0 -8.04297,3.71978 -8.04297,8.34375 v 19.64062 c 0,4.62404 3.58846,8.34571 8.04297,8.34571 h 47.54297 c 4.45451,0 8.04101,-3.72167 8.04101,-8.34571 v -19.64062 c 0,-4.62397 -3.5865,-8.34375 -8.04101,-8.34375 z m -211.53711,41.75 c -4.4721,0 -8.07422,3.7387 -8.07422,8.38086 v 19.71484 c 0,4.64222 3.60212,8.37891 8.07422,8.37891 h 93.95312 c 4.47211,0 8.07227,-3.73669 8.07227,-8.37891 v -19.71484 c 0,-4.64216 -3.60016,-8.38086 -8.07227,-8.38086 z m 186.68555,0 c -4.47218,0 -8.07422,3.7387 -8.07422,8.38086 v 19.71484 c 0,4.64222 3.60204,8.37891 8.07422,8.37891 h 93.95312 c 4.47217,0 8.07227,-3.73669 8.07227,-8.37891 v -19.71484 c 0,-4.64216 -3.6001,-8.38086 -8.07227,-8.38086 z m -234.90606,0.0742 v 36.32812 h 26.45098 c 4.45397,0 8.03906,-3.72418 8.03906,-8.34766 v -19.63476 c 0,-4.62341 -3.58509,-8.3457 -8.03906,-8.3457 z m 165.07207,0 c -4.45404,0 -8.03913,3.72229 -8.03906,8.3457 v 19.63476 c 0,4.62348 3.58502,8.34766 8.03906,8.34766 h 48.21289 c 4.45404,0 8.04102,-3.72418 8.04102,-8.34766 v -19.63476 c 0,-4.62341 -3.58698,-8.3457 -8.04102,-8.3457 z m 186.83399,0 c -4.45411,0 -8.03907,3.72229 -8.03907,8.3457 v 19.63476 c 0,4.62348 3.58496,8.34766 8.03907,8.34766 h 27.03931 v -36.32812 z m -351.90606,43.15625 v 36.47461 h 49.32207 c 4.47217,0 8.07031,-3.7348 8.07031,-8.37696 v -19.71679 c 0,-4.64223 -3.59814,-8.38086 -8.07031,-8.38086 z m 142.20098,0 c -4.47217,0 -8.07227,3.73863 -8.07227,8.38086 v 19.71484 c 0,4.64222 3.6001,8.37891 8.07227,8.37891 h 93.95508 c 4.4721,0 8.07226,-3.73669 8.07226,-8.37891 v -19.71484 c 0,-4.64223 -3.60016,-8.38086 -8.07226,-8.38086 z m 186.83594,0 c -4.47204,0 -8.07227,3.73863 -8.07227,8.38086 v 19.71679 c 0,4.64216 3.60023,8.37696 8.07227,8.37696 h 49.90845 v -36.47461 z m -257.98047,0.0723 c -4.45404,0 -8.03907,3.7223 -8.03907,8.34571 v 19.63671 c 0,4.62334 3.58503,8.34571 8.03907,8.34571 h 48.21484 c 4.45404,0 8.04102,-3.72237 8.04102,-8.34571 v -19.63671 c 0,-4.62341 -3.58698,-8.34571 -8.04102,-8.34571 z m 188.70117,0 c -4.45451,0 -8.04297,3.72174 -8.04297,8.34571 v 19.63867 c 0,4.62389 3.58846,8.3457 8.04297,8.3457 h 47.54297 c 4.45451,0 8.04101,-3.72181 8.04101,-8.3457 v -19.63867 c 0,-4.62397 -3.5865,-8.34571 -8.04101,-8.34571 z m -211.53711,41.75 c -4.4721,0 -8.07422,3.73871 -8.07422,8.38086 v 19.7168 c 0,4.64229 3.60212,8.3789 8.07422,8.3789 h 93.95312 c 4.47211,0 8.07227,-3.73661 8.07227,-8.3789 v -19.7168 c 0,-4.64215 -3.60016,-8.38086 -8.07227,-8.38086 z m 186.68555,0 c -4.47218,0 -8.07422,3.73871 -8.07422,8.38086 v 19.7168 c 0,4.64229 3.60204,8.3789 8.07422,8.3789 h 93.95312 c 4.47217,0 8.07227,-3.73661 8.07227,-8.3789 v -19.7168 c 0,-4.64215 -3.6001,-8.38086 -8.07227,-8.38086 z m -234.90606,0.0762 v 36.32618 h 26.45098 c 4.45397,0 8.03906,-3.72237 8.03906,-8.34571 v -19.63672 c 0,-4.62341 -3.58509,-8.34375 -8.03906,-8.34375 z m 165.07207,0 c -4.45404,0 -8.03913,3.72034 -8.03906,8.34375 v 19.63672 c 0,4.62334 3.58502,8.34571 8.03906,8.34571 h 48.21289 c 4.45404,0 8.04102,-3.72237 8.04102,-8.34571 v -19.63672 c 0,-4.62341 -3.58698,-8.34375 -8.04102,-8.34375 z m 186.83399,0 c -4.45411,0 -8.03907,3.72034 -8.03907,8.34375 v 19.63672 c 0,4.62334 3.58496,8.34571 8.03907,8.34571 h 27.03931 v -36.32618 z m -351.90606,42.88282 v 36.47265 h 49.32207 c 4.47217,0 8.07031,-3.7348 8.07031,-8.37695 v -19.7168 c 0,-4.64215 -3.59814,-8.3789 -8.07031,-8.3789 z m 142.20098,0 c -4.47217,0 -8.07227,3.73675 -8.07227,8.3789 v 19.71485 c 0,4.64229 3.6001,8.3789 8.07227,8.3789 h 93.95508 c 4.4721,0 8.07226,-3.73661 8.07226,-8.3789 v -19.71485 c 0,-4.64215 -3.60016,-8.3789 -8.07226,-8.3789 z m 186.83594,0 c -4.47204,0 -8.07227,3.73675 -8.07227,8.3789 v 19.7168 c 0,4.64215 3.60023,8.37695 8.07227,8.37695 h 49.90845 v -36.47265 z m -257.98047,0.0723 c -4.45404,0 -8.03907,3.7223 -8.03907,8.3457 v 19.63477 c 0,4.62341 3.58503,8.34766 8.03907,8.34766 h 48.21484 c 4.45404,0 8.04102,-3.72425 8.04102,-8.34766 v -19.63477 c 0,-4.6234 -3.58698,-8.3457 -8.04102,-8.3457 z m 188.70117,0 c -4.45451,0 -8.04297,3.72174 -8.04297,8.3457 v 19.63868 c 0,4.62396 3.58846,8.3457 8.04297,8.3457 h 47.54297 c 4.45451,0 8.04101,-3.72174 8.04101,-8.3457 v -19.63868 c 0,-4.62396 -3.5865,-8.3457 -8.04101,-8.3457 z m -211.53711,41.75 c -4.4721,0 -8.07422,3.73675 -8.07422,8.37891 v 19.71679 c 0,4.6423 3.60212,8.37696 8.07422,8.37696 h 93.95312 c 4.47211,0 8.07227,-3.73466 8.07227,-8.37696 v -19.71679 c 0,-4.64216 -3.60016,-8.37891 -8.07227,-8.37891 z m 186.68555,0 c -4.47218,0 -8.07422,3.73675 -8.07422,8.37891 v 19.71679 c 0,4.6423 3.60204,8.37696 8.07422,8.37696 h 93.95312 c 4.47217,0 8.07227,-3.73466 8.07227,-8.37696 v -19.71679 c 0,-4.64216 -3.6001,-8.37891 -8.07227,-8.37891 z m -234.90606,0.0742 v 36.32813 h 26.45098 c 4.45397,0 8.03906,-3.72425 8.03906,-8.34766 v -19.63477 c 0,-4.62341 -3.58509,-8.3457 -8.03906,-8.3457 z m 165.07207,0 c -4.45404,0 -8.03913,3.72229 -8.03906,8.3457 v 19.63477 c 0,4.62341 3.58502,8.34766 8.03906,8.34766 h 48.21289 c 4.45404,0 8.04102,-3.72425 8.04102,-8.34766 v -19.63477 c 0,-4.62341 -3.58698,-8.3457 -8.04102,-8.3457 z m 186.83399,0 c -4.45411,0 -8.03907,3.72229 -8.03907,8.3457 v 19.63477 c 0,4.62341 3.58496,8.34766 8.03907,8.34766 h 27.03931 v -36.32813 z m -351.90606,43.86914 v 36.47461 h 49.32207 c 4.47217,0 8.07031,-3.73675 8.07031,-8.37891 v -19.71875 c 0,-4.64222 -3.59814,-8.37695 -8.07031,-8.37695 z m 142.20098,0 c -4.47217,0 -8.07227,3.73473 -8.07227,8.37695 v 19.7168 c 0,4.64222 3.6001,8.38086 8.07227,8.38086 h 93.95508 c 4.4721,0 8.07226,-3.73864 8.07226,-8.38086 v -19.7168 c 0,-4.64222 -3.60016,-8.37695 -8.07226,-8.37695 z m 186.83594,0 c -4.47204,0 -8.07227,3.73473 -8.07227,8.37695 v 19.71875 c 0,4.64216 3.60023,8.37891 8.07227,8.37891 h 49.90845 v -36.47461 z m -257.98047,0.0703 c -4.45404,0 -8.03907,3.72432 -8.03907,8.34766 v 19.63477 c 0,4.62334 3.58503,8.3457 8.03907,8.3457 h 48.21484 c 4.45404,0 8.04102,-3.72236 8.04102,-8.3457 v -19.63477 c 0,-4.62334 -3.58698,-8.34766 -8.04102,-8.34766 z m 188.70117,0 c -4.45451,0 -8.04297,3.72377 -8.04297,8.34766 v 19.63867 c 0,4.6239 3.58846,8.3457 8.04297,8.3457 h 47.54297 c 4.45451,0 8.04101,-3.7218 8.04101,-8.3457 v -19.63867 c 0,-4.62389 -3.5865,-8.34766 -8.04101,-8.34766 z m -211.53711,41.75196 c -4.4721,0 -8.07422,3.73675 -8.07422,8.3789 v 19.71485 c 0,4.64229 3.60212,8.38086 8.07422,8.38086 h 93.95312 c 4.47211,0 8.07227,-3.73857 8.07227,-8.38086 v -19.71485 c 0,-4.64215 -3.60016,-8.3789 -8.07227,-8.3789 z m 186.68555,0 c -4.47218,0 -8.07422,3.73675 -8.07422,8.3789 v 19.71485 c 0,4.64229 3.60204,8.38086 8.07422,8.38086 h 93.95312 c 4.47217,0 8.07227,-3.73857 8.07227,-8.38086 v -19.71485 c 0,-4.64215 -3.6001,-8.3789 -8.07227,-8.3789 z m -234.90606,0.0723 v 36.32813 h 26.45098 c 4.45397,0 8.03906,-3.72237 8.03906,-8.34571 v -19.63476 c 0,-4.62334 -3.58509,-8.34766 -8.03906,-8.34766 z m 165.07207,0 c -4.45404,0 -8.03913,3.72432 -8.03906,8.34766 v 19.63476 c 0,4.62334 3.58502,8.34571 8.03906,8.34571 h 48.21289 c 4.45404,0 8.04102,-3.72237 8.04102,-8.34571 v -19.63476 c 0,-4.62334 -3.58698,-8.34766 -8.04102,-8.34766 z m 186.83399,0 c -4.45411,0 -8.03907,3.72432 -8.03907,8.34766 v 19.63476 c 0,4.62334 3.58496,8.34571 8.03907,8.34571 h 27.03931 v -36.32813 z m -351.90606,43.86914 v 36.47657 h 49.32207 c 4.47217,0 8.07031,-3.73676 8.07031,-8.37891 v -19.7168 c 0,-4.64215 -3.59814,-8.38086 -8.07031,-8.38086 z m 142.20098,0 c -4.47217,0 -8.07227,3.73871 -8.07227,8.38086 v 19.7168 c 0,4.64222 3.6001,8.37891 8.07227,8.37891 h 93.95508 c 4.4721,0 8.07226,-3.73669 8.07226,-8.37891 v -19.7168 c 0,-4.64215 -3.60016,-8.38086 -8.07226,-8.38086 z m 186.83594,0 c -4.47204,0 -8.07227,3.73871 -8.07227,8.38086 v 19.7168 c 0,4.64215 3.60023,8.37891 8.07227,8.37891 h 49.90845 v -36.47657 z m -257.98047,0.0742 c -4.45404,0 -8.03907,3.72034 -8.03907,8.34375 v 19.63867 c 0,4.62341 3.58503,8.34375 8.03907,8.34375 h 48.21484 c 4.45404,0 8.04102,-3.72034 8.04102,-8.34375 v -19.63867 c 0,-4.62341 -3.58698,-8.34375 -8.04102,-8.34375 z m 188.70117,0 c -4.45451,0 -8.04297,3.71979 -8.04297,8.34375 v 19.64063 c 0,4.62396 3.58846,8.3457 8.04297,8.3457 h 47.54297 c 4.45451,0 8.04101,-3.72174 8.04101,-8.3457 v -19.64063 c 0,-4.62396 -3.5865,-8.34375 -8.04101,-8.34375 z m -211.53711,41.75 c -4.4721,0 -8.07422,3.73668 -8.07422,8.37891 v 19.7168 c 0,4.64222 3.60212,8.3789 8.07422,8.3789 h 93.95312 c 4.47211,0 8.07227,-3.73668 8.07227,-8.3789 v -19.7168 c 0,-4.64223 -3.60016,-8.37891 -8.07227,-8.37891 z m 186.68555,0 c -4.47218,0 -8.07422,3.73668 -8.07422,8.37891 v 19.7168 c 0,4.64222 3.60204,8.3789 8.07422,8.3789 h 93.95312 c 4.47217,0 8.07227,-3.73668 8.07227,-8.3789 v -19.7168 c 0,-4.64223 -3.6001,-8.37891 -8.07227,-8.37891 z m -234.90606,0.0742 v 36.32813 h 26.45098 c 4.45397,0 8.03906,-3.72223 8.03906,-8.34571 v -19.63672 c 0,-4.62341 -3.58509,-8.3457 -8.03906,-8.3457 z m 165.07207,0 c -4.45404,0 -8.03913,3.72229 -8.03906,8.3457 v 19.63672 c 0,4.62348 3.58502,8.34571 8.03906,8.34571 h 48.21289 c 4.45404,0 8.04102,-3.72223 8.04102,-8.34571 v -19.63672 c 0,-4.62341 -3.58698,-8.3457 -8.04102,-8.3457 z m 186.83399,0 c -4.45411,0 -8.03907,3.72229 -8.03907,8.3457 v 19.63672 c 0,4.62348 3.58496,8.34571 8.03907,8.34571 h 27.03931 v -36.32813 z"
         transform="matrix(0.26438492,0,0,0.27924151,-1578.7555,-64.737458)"
         sodipodi:nodetypes="ccsssscsssssssssssssccsssssssssssssssssssssssssssssssssssssccsssscscsssssssssssccsccsssscsssssssssssssccsssssssssssssssssssssssssssssssssssssccsssscscsssssssssssccsccsssscsssssssssssssccsssssssssssssssssssssssssssssssssssssccsssscscsssssssssssccsccsssscsssssssssssssccsssssssssssssssssssssssssssssssssssssccsssscscsssssssssssccsccsssscsssssssssssssccsssssssssssssssssssssssssssssssssssssccsssscscsssssssssssccsccsssscsssssssssssssccsssssssssssssssssssssssssssssssssssssccsssscscsssssssssssccs" />
    </g>
  </g>
</svg>
